<svg width="64" height="67" viewBox="0 0 64 67" fill="none" xmlns="http://www.w3.org/2000/svg">
<path d="M61.9148 35.6375C61.7388 32.3766 61.2004 28.7333 58.85 26.475C59.0019 25.9827 58.9781 25.4531 58.7827 24.9763C57.8903 22.444 56.3867 20.1702 54.4047 18.3558C52.4228 16.5414 50.0235 15.2424 47.4191 14.5735C46.8331 14.4139 46.2084 14.4803 45.6693 14.7596C43.1058 13.5047 40.3557 12.6723 37.5258 12.2945C37.3084 12.2635 37.0909 12.2273 36.8683 12.2067C36.5772 12.1591 36.2792 12.1757 35.9952 12.2555C35.7112 12.3352 35.4482 12.4761 35.2247 12.6682C35.0011 12.8604 34.8224 13.099 34.7012 13.3675C34.58 13.636 34.5192 13.9277 34.5231 14.2221C30.9784 14.1217 27.4312 14.2824 23.9102 14.7027C23.5961 14.7423 23.2923 14.8405 23.0146 14.9921C20.4556 15.2002 17.9646 15.9189 15.689 17.1058C15.2714 17.3087 14.9312 17.6419 14.7201 18.0549C14.509 18.468 14.4384 18.9384 14.519 19.3951C13.3061 20.0727 12.1648 20.8709 11.1125 21.7775C10.9977 21.8092 10.8853 21.8489 10.776 21.8963C4.93115 24.4802 2.28569 31.1105 2.69985 37.2085C2.65605 37.3044 2.61802 37.4027 2.58595 37.5031C2.07914 39.1783 1.9815 40.9503 2.30122 42.6709C2.22361 42.8964 2.17491 43.1308 2.15626 43.3686C1.86117 47.6785 4.85867 52.3296 7.64392 55.3786C7.85686 55.649 8.1302 55.8661 8.44211 56.0123C8.75402 56.1586 9.09587 56.23 9.44035 56.2209C9.94759 56.7727 10.4906 57.2906 11.0659 57.7713C15.7253 62.7427 21.974 64.8512 28.4039 64.8408L28.5954 64.8925C29.0861 65.0012 29.5977 64.969 30.0709 64.7995C33.2552 64.6001 36.3939 63.9422 39.3895 62.8461C42.5436 62.9993 45.6867 62.3718 48.5391 61.0193C51.3915 59.6669 53.8647 57.6315 55.7386 55.0943C56.9618 53.4515 57.9272 51.6322 58.6015 49.6991C59.0191 49.4897 59.3757 49.1765 59.6369 48.7896C62.2358 44.9964 62.153 40.0457 61.9148 35.6375Z" fill="#E02239"/>
<path d="M58.586 27.6066C57.6238 25.6134 56.346 23.7881 54.8016 22.2011C49.666 14.6768 39.5397 10.1394 30.8163 14.1341C29.524 14.7358 28.383 15.6187 27.4772 16.7181C25.824 16.8007 24.1725 16.8886 22.5227 16.9816C22.1483 16.8065 21.7321 16.7402 21.3217 16.7904C20.5259 16.875 19.7392 17.0307 18.9713 17.2555H18.9195C17.3644 17.72 15.8816 18.3983 14.5139 19.271C14.2643 19.26 14.0145 19.2879 13.7735 19.3536C9.30057 20.6146 5.41779 25.0847 4.57394 29.6427C4.22265 29.7842 3.90922 30.0055 3.65851 30.289C3.40779 30.5724 3.22668 30.9103 3.12954 31.2758C-0.468501 43.0946 4.64124 56.3655 15.1247 62.8563C16.7348 63.8537 18.6037 62.572 19.0127 61.0527C20.4778 61.7193 22.2742 62.5204 23.9878 62.603C26.3641 63.5436 29.2684 63.8485 31.1632 62.7271C37.6345 65.0267 45.6589 62.2723 51.0741 58.3913C53.8759 56.4371 56.2357 53.9177 58.001 50.9961C58.1799 50.7146 58.3424 50.423 58.4876 50.1228L58.6481 49.823C59.8802 49.9522 61.1745 49.3735 61.3868 47.9781C62.4222 40.9861 61.7077 33.9992 58.586 27.6066Z" fill="#E80000"/>
<path d="M62.7897 35.5806C62.6953 33.2918 62.0754 31.0552 60.9778 29.0434C60.6749 27.1215 59.9053 25.3029 58.7361 23.7464C58.6647 23.6597 58.5868 23.5785 58.5032 23.5035C57.7458 22.2135 56.7942 21.0474 55.6817 20.0462C53.8756 18.4362 51.794 17.1636 49.5365 16.2892C48.5189 15.6056 47.441 15.0158 46.3164 14.527C45.7161 14.1329 45.067 13.8185 44.3854 13.5916C43.7464 13.3827 43.08 13.2695 42.4077 13.2557C40.6165 12.6149 38.4525 12.5735 36.7855 13.5813C36.4794 13.7718 36.2007 14.003 35.9571 14.2686C33.9651 14.7669 32.0937 15.6596 30.454 16.8938C29.478 16.6228 28.4829 16.4258 27.4772 16.3047C26.9595 16.2479 26.4417 16.2013 25.924 16.1807C24.5293 15.8409 23.099 15.6674 21.6633 15.6639C17.765 15.7207 13.7373 18.2478 10.8692 20.6973C8.73857 22.5189 7.02284 24.7743 5.83713 27.3121C4.5584 27.9426 3.62654 29.3793 2.96387 31.1001C0.0440242 33.6789 0.194158 40.1542 0.805049 43.2652C1.57631 46.8038 3.23672 50.0885 5.63005 52.8101C7.23493 56.8152 11.3869 59.6368 15.2024 61.306C18.3853 62.6871 21.8274 63.3725 25.2976 63.3163C26.8977 64.0014 28.6066 64.3986 30.3452 64.4894C30.6091 64.5026 30.8735 64.5026 31.1373 64.4894C34.1997 65.1685 37.3658 65.2405 40.456 64.7013C42.6677 64.2594 44.7201 63.2332 46.3992 61.7298C48.5984 61.055 50.6344 59.9342 52.3795 58.4376C54.1246 56.941 55.5414 55.1009 56.5411 53.0323L56.6601 52.9031C59.0209 50.3968 61.1849 47.7353 61.9148 44.2832C62.1897 42.9228 62.3164 41.5366 62.2927 40.149C62.6905 38.6604 62.8581 37.1198 62.7897 35.5806Z" fill="#DB1818"/>
<path d="M33.6119 8.71306C33.9899 8.19628 33.4515 8.53219 33.0425 8.77508C33.1453 8.51788 33.2047 8.24547 33.2185 7.9689C33.9795 6.41856 33.2496 4.11888 31.0131 4.11888C30.3988 4.09944 29.8004 4.31577 29.341 4.72335C28.8817 5.13094 28.5963 5.69879 28.5436 6.31003C28.235 6.7417 28.0669 7.25772 28.0622 7.78803V7.82937C28.0622 7.89655 28.0622 7.95856 28.0622 8.02575C27.479 8.00285 26.8954 8.06024 26.3279 8.19628C25.8467 8.09387 25.3588 8.02651 24.8679 7.99474C21.5494 7.73118 21.565 12.899 24.8679 13.1625C25.3458 13.2854 25.8296 13.3837 26.3175 13.4571C26.6247 13.4368 26.926 13.3634 27.208 13.2401C27.3952 13.4557 27.6241 13.6315 27.881 13.7568C30.9872 15.271 36.0348 14.1031 38.0538 11.3228C40.0574 8.62521 35.5482 6.04647 33.6119 8.71306Z" fill="#547229"/>
<path d="M63.09 30.79C60.6361 21.4363 53.1604 13.7724 44.23 11.8862H44.142C43.8676 11.8242 43.5881 11.7932 43.3085 11.7312C42.7908 11.6485 42.2731 11.5761 41.7554 11.5296H41.5639C41.4344 11.5296 41.3464 11.5296 41.1756 11.4986C40.8391 11.4986 40.5026 11.4676 40.1402 11.4728C39.405 11.4728 39.0789 11.5038 38.7217 11.5296C39.866 9.97005 41.1258 8.49827 42.4906 7.12665C43.3189 6.3153 42.7546 4.54274 41.4551 4.6616C38.9297 4.91121 36.4565 5.54017 34.1193 6.52718C34.0675 4.94583 34.0106 3.35931 33.9536 1.77796C33.94 1.48909 33.8437 1.21016 33.6762 0.974165C33.5088 0.738172 33.2771 0.554985 33.0087 0.446269C32.7402 0.337553 32.4462 0.307855 32.1613 0.360687C31.8765 0.41352 31.6128 0.546673 31.4013 0.744399C29.2109 2.51098 27.6674 4.95117 27.0112 7.68477C23.1077 6.98711 19.2456 6.69772 15.4923 8.36692C14.3119 8.8837 14.6484 10.8578 15.8547 11.1162C18.5039 11.7391 21.0754 12.6543 23.5219 13.8448C19.1276 14.2943 14.9189 15.847 11.288 18.3581C7.65707 20.8693 4.72215 24.2572 2.75678 28.2061C-2.93797 39.782 0.354631 53.2494 11.1125 60.4998C21.7462 67.6675 37.298 68.174 48.6046 62.3395C60.2116 56.35 66.4603 43.539 63.09 30.79ZM29.7033 9.44182C29.8866 8.04502 30.3725 6.70481 31.127 5.51429C31.1684 6.6047 31.215 7.6951 31.2667 8.78551C31.2717 9.04166 31.343 9.29218 31.4737 9.51264C31.6045 9.7331 31.7902 9.91599 32.0128 10.0435C32.2354 10.171 32.4874 10.2388 32.744 10.2402C33.0007 10.2416 33.2533 10.1766 33.4773 10.0516C34.7291 9.33963 36.0532 8.76275 37.4274 8.33074C36.6462 9.33105 35.9778 10.4142 35.4342 11.5606C35.37 11.7018 35.3264 11.8515 35.3048 12.0051C34.3259 12.2347 33.3642 12.5317 32.4264 12.8939L29.8379 13.9688C29.5842 13.9327 29.3202 13.9068 29.082 13.8758C27.2701 12.2827 25.1918 11.0198 22.9421 10.1446C24.578 10.2954 26.2031 10.5456 27.8085 10.894C28.0309 10.9442 28.2616 10.945 28.4843 10.8962C28.707 10.8474 28.9163 10.7502 29.0971 10.6116C29.278 10.473 29.4261 10.2963 29.5308 10.0942C29.6356 9.89198 29.6945 9.66927 29.7033 9.44182ZM49.6763 58.7376C40.0573 64.9079 26.509 65.2697 16.243 60.4326C5.57826 55.4147 0.018123 44.2884 3.65758 32.852C5.42676 27.2607 9.21421 22.5252 14.2846 19.5648C19.355 16.6043 25.3465 15.6303 31.0959 16.8318C32.1657 15.9438 33.3673 15.2273 34.6577 14.7078C34.813 14.6458 34.9942 14.5786 35.1754 14.5218C36.1348 14.2048 37.142 14.0562 38.1522 14.0825C47.7401 13.049 56.7481 20.1599 59.9682 29.3276C63.8717 40.5055 59.611 52.376 49.6711 58.7376H49.6763Z" fill="#201600"/>
<path d="M15.1299 22.3768C12.5685 24.2723 10.5509 26.8061 9.27889 29.7247C8.0069 32.6432 7.52522 35.8441 7.88206 39.0069C8.07361 40.6399 10.6673 40.6554 10.4706 39.0069C10.1161 36.297 10.4793 33.5417 11.5239 31.0155C12.5685 28.4894 14.258 26.2806 16.4242 24.6093C17.7443 23.6119 16.4552 21.3691 15.1299 22.3768Z" fill="#201600"/>
<path d="M13.5561 44.8517C13.3775 44.5617 13.0939 44.3515 12.7642 44.2649C12.4344 44.1783 12.0839 44.2218 11.7855 44.3865L11.2678 44.6449C10.9732 44.8195 10.7593 45.1027 10.6721 45.4334C10.5849 45.764 10.6315 46.1157 10.8019 46.4123C10.9804 46.7023 11.264 46.9125 11.5938 46.9991C11.9235 47.0857 12.274 47.0422 12.5724 46.8774L13.0901 46.619C13.3847 46.4445 13.5986 46.1613 13.6858 45.8306C13.773 45.5 13.7264 45.1483 13.5561 44.8517Z" fill="#201600"/>
</svg>
