<svg width="62" height="64" viewBox="0 0 62 64" fill="none" xmlns="http://www.w3.org/2000/svg">
<path d="M55.4259 41.2989L55.3776 41.1798C53.8765 37.6392 52.0604 34.2127 49.9469 30.9335C47.6014 24.967 44.0321 19.4473 39.4233 14.6596C39.3116 14.545 39.1884 14.4399 39.0552 14.3455C36.4395 9.74053 33.2272 5.42876 29.4851 1.49972C27.4033 -0.666523 23.4509 1.92213 24.6578 4.35373C24.5439 4.47853 24.4467 4.61484 24.3681 4.7599C22.759 7.78542 21.2324 10.8543 19.7882 13.9664C18.7217 15.7422 17.8662 17.6136 17.2358 19.5499C17.1304 19.8694 17.0895 20.2032 17.1151 20.5355C16.9058 20.7828 16.7427 21.059 16.6323 21.3533C16.3749 22.0176 16.1255 22.6837 15.8841 23.3516L14.6592 26.6877C13.561 28.9622 12.5372 31.2548 11.5878 33.5655C11.1709 33.7752 10.8168 34.0725 10.556 34.432C8.35304 37.4244 6.91096 40.8154 6.33206 44.3642C6.11483 44.7378 5.90363 45.1169 5.72864 45.5014C2.65726 49.1624 0.297908 54.1989 2.49434 58.0602C5.41487 63.2429 14.2609 62.6472 19.2512 60.5406C24.2865 61.383 29.424 61.6234 34.5296 61.2554C37.782 61.0009 41.1672 60.573 44.1843 59.4141C44.4767 59.4689 44.7731 59.5051 45.0713 59.5224C46.5397 59.6076 47.9964 59.2387 49.1986 58.4772C51.3485 58.0049 53.3903 57.2005 55.2328 56.0998C57.6465 55.412 59.7282 52.8179 60.0601 50.5271C60.3183 48.7545 60.0216 46.9523 59.2031 45.3224C58.3846 43.6926 57.0767 42.2994 55.4259 41.2989Z" fill="#FFCE00"/>
<path d="M29.7023 38.8186C29.4871 38.6957 29.2505 38.606 29.0023 38.5533C28.8008 38.4259 28.5867 38.3153 28.3627 38.2229C28.1515 38.1471 27.8619 38.0496 27.7593 38.0334C27.426 37.9684 27.0865 37.9321 26.7455 37.925C26.0267 37.9274 25.3182 38.0794 24.6758 38.3691C24.0135 38.6681 23.4368 39.0999 22.9905 39.6311C22.5441 40.1624 22.2401 40.7787 22.102 41.4324C21.9639 42.0861 21.9953 42.7596 22.194 43.4006C22.3927 44.0416 22.7531 44.633 23.2475 45.1288C23.7419 45.6246 24.3568 46.0116 25.0447 46.2597C25.7326 46.5078 26.4749 46.6103 27.214 46.5594C27.9532 46.5086 28.6694 46.3055 29.3071 45.9662C29.9447 45.6268 30.4867 45.1602 30.891 44.6025C31.5692 43.6888 31.8243 42.574 31.6024 41.4944C31.3805 40.4147 30.699 39.455 29.7023 38.8186Z" fill="#CCA500"/>
<path d="M28.2782 38.2229L28.3627 38.2608C28.6161 38.3258 28.7609 38.3799 28.2782 38.2229Z" fill="#CCA500"/>
<path d="M13.1627 43.0969C13.3618 41.3531 9.91025 38.8078 7.8707 39.9613C4.91397 41.6239 4.25021 45.1332 4.4433 48.2959C4.44257 48.7568 4.57645 49.2099 4.8316 49.6099C5.08676 50.01 5.45428 50.343 5.89753 50.5758C8.37154 51.5994 11.3283 51.3449 13.0963 49.3465C14.8643 47.3481 14.6531 45.014 13.1627 43.0969Z" fill="#CCA500"/>
<path d="M19.7821 19.3116C16.8194 19.1762 14.1523 22.079 15.2686 24.6731C15.545 25.351 16.0708 25.9241 16.759 26.2978C18.6779 28.1228 22.3044 27.5813 23.6319 25.3338C25.1646 22.7451 22.9863 19.4578 19.7821 19.3116Z" fill="#CCA500"/>
<path d="M36.9855 11.5945C36.9708 10.9852 36.713 10.4009 36.259 9.94774C35.805 9.49458 35.1849 9.20265 34.5115 9.12499C34.0103 9.02784 33.4968 8.99141 32.9848 9.01668C32.2256 9.02899 31.4994 9.29779 30.9513 9.76944C30.5465 10.1297 30.2703 10.5899 30.1579 11.0914C30.0454 11.593 30.1018 12.1132 30.3199 12.5859C30.5379 13.0586 30.9078 13.4624 31.3824 13.7459C31.8569 14.0293 32.4148 14.1796 32.9848 14.1776C33.4865 14.2007 33.9894 14.1661 34.4813 14.0747C35.1684 14.0191 35.8071 13.7338 36.2709 13.2754C36.7347 12.8171 36.9898 12.219 36.9855 11.5999V11.5945Z" fill="#CCA500"/>
<path d="M49.0116 29.2385C49.0098 28.5692 48.7151 27.9274 48.1909 27.4514C47.794 27.1194 47.3037 26.891 46.7729 26.7907C46.3824 26.683 45.9701 26.6553 45.5661 26.7094H45.6807C45.423 26.7224 45.1668 26.7532 44.9144 26.8015C44.5905 26.8599 44.2802 26.968 43.9972 27.121C43.5045 27.3906 43.0907 27.7619 42.7904 28.2041C42.511 28.6238 42.3529 29.0995 42.3304 29.588C42.3079 30.0765 42.4216 30.5623 42.6614 31.0013C42.9012 31.4403 43.2594 31.8186 43.7034 32.1018C44.1474 32.3851 44.6632 32.5643 45.204 32.6232C45.886 32.709 46.5801 32.5829 47.1711 32.2657C47.8599 31.9036 48.3739 31.3245 48.6133 30.6411V30.5707C48.8869 30.1706 49.0252 29.7078 49.0116 29.2385Z" fill="#CCA500"/>
<path d="M46.5617 42.0138C42.7964 42.0138 42.7904 47.267 46.5617 47.267C50.3331 47.267 50.3391 42.0138 46.5617 42.0138Z" fill="#CCA500"/>
<path d="M37.3657 54.6106C36.5904 53.765 35.543 53.1551 34.3668 52.8643C33.1905 52.5734 31.9428 52.6159 30.7945 52.9859C27.9765 53.9445 27.005 56.1919 26.2568 58.5855C25.6534 60.6109 27.5964 61.8348 29.3584 61.5695C29.9209 61.764 30.5407 61.7793 31.1143 61.6128C32.2366 61.3095 33.2021 60.9629 34.3908 61.1416C35.9235 61.3745 37.257 61.824 38.5423 60.6759C40.5638 58.8617 38.9104 56.1756 37.3657 54.6106Z" fill="#CCA500"/>
<path d="M56.9344 38.0497C54.4081 33.9627 51.8174 29.91 49.1624 25.8917C48.8752 25.5288 48.6229 25.1447 48.4081 24.7436C47.1731 22.8986 45.9281 21.0447 44.673 19.1817C42.6616 16.2248 40.608 13.2878 38.5121 10.3706C36.545 7.65738 34.7347 4.24015 32.0556 2.00892C27.3731 -1.91196 23.3906 2.7996 21.5139 6.50386C14.4359 20.4436 7.78021 34.562 1.39608 48.7454C-1.10809 53.744 -0.172794 57.1721 3.63475 59.7391C8.90256 63.2917 17.0969 63.2646 23.3724 63.4596C30.722 63.687 38.3371 63.3946 45.5359 61.9216C51.0571 60.7951 56.6206 58.5964 60.0178 54.3397C64.6098 48.583 60.223 43.3678 56.9344 38.0497ZM46.6763 27.4405C47.2596 28.3251 47.8369 29.2096 48.4081 30.0942C47.2013 30.9986 44.3411 32.6016 44.4437 29.975C44.4886 29.3984 44.7271 28.8476 45.1279 28.3952C45.5286 27.9427 46.0727 27.6099 46.6884 27.4405H46.6763ZM36.4183 12.4448C35.0787 13.3275 31.8806 14.1019 30.885 12.4718C29.7988 10.6847 32.6349 9.80195 34.3305 9.53117C35.0023 10.4988 35.6922 11.47 36.4002 12.4448H36.4183ZM17.7124 20.7902C17.8271 20.5519 17.9417 20.3082 18.0564 20.0699C18.235 20.1334 18.4254 20.1665 18.6175 20.1674C21.5803 20.1674 24.1026 22.5882 22.8414 25.2635C22.5865 25.8199 22.1622 26.3008 21.6171 26.6511C21.072 27.0013 20.4281 27.2069 19.759 27.2442C19.0898 27.2814 18.4225 27.149 17.8333 26.8619C17.2441 26.5749 16.7568 26.1448 16.4271 25.6209C16.2598 25.3584 15.9949 25.1571 15.6789 25.0522C16.3608 23.6279 17.0366 22.2091 17.7245 20.7902H17.7124ZM8.49224 40.3242C8.68534 39.8964 8.85429 40.1509 9.05342 40.2538C9.25255 40.3567 9.37323 40.4704 9.53012 40.5517C11.98 42.3226 13.9471 45.0249 12.517 47.8789C11.1412 50.6192 6.82682 50.6517 5.08295 48.1985C5.04749 48.1532 5.00921 48.1098 4.9683 48.0685C6.13088 45.4762 7.30553 42.8948 8.49224 40.3242ZM37.5708 60.3619C33.9463 60.6964 30.3047 60.8591 26.6611 60.8493C26.5338 59.4456 26.8446 58.0379 27.5586 56.7839C28.2727 55.5299 29.3619 54.4791 30.7039 53.7494C34.8313 51.6211 38.132 56.4572 38.6569 59.5225C38.6909 59.7848 38.8227 60.0291 39.0311 60.2157L37.5708 60.3619ZM58.5153 51.3178C57.3085 53.6899 55.0276 55.4987 52.5476 56.7822C49.1021 58.5639 45.1497 59.4358 41.1973 59.9611C41.351 59.8059 41.4639 59.6216 41.5276 59.4219C41.5913 59.2223 41.6042 59.0123 41.5654 58.8076C40.8534 54.6484 36.364 49.2437 31.0117 50.6842C26.2568 51.9623 23.3966 56.5222 23.644 60.8005C21.1881 60.7301 18.7322 60.5839 16.2884 60.3565C12.9515 60.0424 9.22841 59.7337 6.29581 58.1306C4.34678 57.0475 2.7055 55.3633 2.67532 53.3487C2.71459 53.0976 2.77511 52.8496 2.85635 52.6068C3.24857 51.7294 3.37529 51.5236 3.67096 50.8846C6.68803 53.3487 11.7688 53.4516 14.4057 50.3105C18.2977 45.6748 14.4359 40.113 9.81975 37.4539C11.3243 34.2046 12.8469 30.9679 14.3876 27.7438C15.0832 28.5079 15.9795 29.1049 16.9957 29.4813C18.012 29.8577 19.1166 30.0016 20.2102 29.9001C21.3038 29.7986 22.3521 29.4549 23.2611 28.8999C24.1701 28.3449 24.9113 27.5959 25.418 26.7202C27.8317 22.4365 24.2112 17.9145 19.2572 17.5137C21.0674 13.4954 22.8776 9.35787 25.2913 5.66444C26.1361 4.35929 27.2343 2.83209 29.2799 3.49821C30.4867 3.89896 31.4099 5.59404 32.0918 6.51469L32.5142 7.09416C31.2182 7.34721 30.0318 7.93227 29.0989 8.77841C28.4351 9.39424 27.9827 10.1684 27.7954 11.0085C27.6082 11.8487 27.6941 12.7195 28.0429 13.517C29.7686 16.9559 34.9641 16.4415 37.9751 14.7031C40.3887 18.1402 42.7642 21.6025 45.1014 25.0902C43.854 25.5872 42.8258 26.4418 42.1782 27.52C41.5306 28.5982 41.3002 29.8389 41.5232 31.0473C41.6691 31.8689 42.1185 32.6226 42.7992 33.1874C43.4799 33.7521 44.3523 34.0951 45.2764 34.1613C47.0867 34.2804 48.5892 33.4681 49.9348 32.4878C52.0869 35.8455 54.1989 39.2248 56.2706 42.6258C57.9602 45.3607 60.1325 48.1118 58.5153 51.3016V51.3178Z" fill="#201600"/>
<path d="M50.7132 44.6838C50.5201 42.5555 48.6133 41.8135 46.7186 41.7377C46.536 41.6361 46.3292 41.5749 46.1152 41.559C44.2386 41.4019 42.8628 43.1837 42.9231 44.9275C42.9808 45.8111 43.4243 46.6387 44.1574 47.2307C44.8905 47.8228 45.8541 48.1316 46.8393 48.0902C48.734 48.0469 50.9063 46.7688 50.7132 44.6838ZM47.6961 45.1604C47.4469 45.2986 47.1622 45.3769 46.8695 45.3878C46.5315 45.3878 45.8678 45.3337 45.729 44.9546C45.6975 44.8731 45.6855 44.7867 45.6938 44.7008C45.7022 44.615 45.7306 44.5316 45.7773 44.4563C46.4772 44.3588 47.6177 44.2072 47.9616 44.8192C48.0099 44.9979 47.9556 44.9925 47.666 45.1604H47.6961Z" fill="#201600"/>
<path d="M28.9782 43.9635C27.168 46.3355 23.5113 44.6513 23.1613 42.2089C22.8294 39.891 25.8887 38.288 28.1213 39.2141C29.8713 39.9398 31.41 37.5894 29.642 36.8746C25.0801 34.9737 19.1606 38.1689 20.2528 42.9671C21.345 47.7652 28.3386 49.5415 31.591 45.3337C32.6952 43.8985 30.0824 42.5555 28.9782 43.9635Z" fill="#201600"/>
<path d="M32.4116 39.382C30.4686 39.382 30.4686 42.0897 32.4116 42.0897C34.3546 42.0897 34.3546 39.382 32.4116 39.382Z" fill="#201600"/>
<path d="M32.8159 28.1879H32.4116C32.0115 28.1879 31.6278 28.3305 31.3449 28.5844C31.062 28.8383 30.9031 29.1827 30.9031 29.5418C30.9031 29.9009 31.062 30.2453 31.3449 30.4992C31.6278 30.7531 32.0115 30.8958 32.4116 30.8958H32.8159C33.216 30.8958 33.5997 30.7531 33.8826 30.4992C34.1655 30.2453 34.3244 29.9009 34.3244 29.5418C34.3244 29.1827 34.1655 28.8383 33.8826 28.5844C33.5997 28.3305 33.216 28.1879 32.8159 28.1879Z" fill="#201600"/>
<path d="M19.1365 53.8252H18.7322C18.3321 53.8252 17.9484 53.9678 17.6655 54.2218C17.3826 54.4757 17.2236 54.8201 17.2236 55.1791C17.2236 55.5382 17.3826 55.8826 17.6655 56.1365C17.9484 56.3904 18.3321 56.5331 18.7322 56.5331H19.1365C19.5365 56.5331 19.9202 56.3904 20.2031 56.1365C20.4861 55.8826 20.645 55.5382 20.645 55.1791C20.645 54.8201 20.4861 54.4757 20.2031 54.2218C19.9202 53.9678 19.5365 53.8252 19.1365 53.8252Z" fill="#201600"/>
</svg>
