<svg width="49" height="64" viewBox="0 0 49 64" fill="none" xmlns="http://www.w3.org/2000/svg">
<path d="M16.2795 2.40477C15.6456 2.44585 15.0239 2.59713 14.4423 2.85175C13.1985 3.4527 12.1135 4.33636 11.2747 5.43163C11.1773 5.47536 11.0749 5.51908 10.9775 5.57253C10.75 5.69971 10.5667 5.8928 10.4519 6.1262C10.337 6.3596 10.296 6.6223 10.3342 6.87947C9.91944 7.64647 9.65015 8.48318 9.53989 9.3476C9.36458 9.49503 9.23323 9.68763 9.16019 9.90438C9.08714 10.1211 9.0752 10.3537 9.12567 10.5768C9.39879 11.7422 9.77719 12.8805 10.2562 13.9778C10.6677 14.9874 11.1838 15.9513 11.7962 16.854C11.9043 17.0168 12.0496 17.1516 12.2201 17.2475C12.6871 18.3549 13.0826 19.4909 13.4043 20.6485C13.5603 21.2218 13.6529 22.1061 13.8039 23.0195C12.5822 25.2626 11.5692 27.6126 10.7777 30.04C10.7177 30.209 10.6979 30.3896 10.7198 30.5675C10.7418 30.7454 10.805 30.9158 10.9044 31.0652C10.3922 31.9962 9.96648 32.972 9.63248 33.9803C9.60785 34.0608 9.59313 34.144 9.58862 34.2281C7.12688 37.2079 4.88426 40.3612 2.87826 43.6633C2.78934 43.8079 2.73672 43.9717 2.72484 44.1408C2.71296 44.31 2.74219 44.4795 2.81003 44.635C2.57893 45.3137 2.4157 46.0135 2.32272 46.7242C2.2886 46.9622 2.25937 47.21 2.23987 47.4821C2.06005 47.5666 1.90762 47.6998 1.79994 47.8664C1.69225 48.033 1.63362 48.2264 1.63073 48.4246C1.38707 52.535 5.04195 57.2283 9.32547 57.4663C9.5204 57.6413 9.70558 57.8259 9.90538 57.9959C10.1052 58.166 10.1685 58.2243 10.3001 58.336L10.4707 58.4769C11.1299 59.0306 11.8215 59.5449 12.5418 60.0171C12.7312 60.157 12.9628 60.2284 13.1984 60.2195C13.4341 60.2107 13.6596 60.1222 13.838 59.9685L13.9306 60.0608C18.0485 63.5929 22.8875 63.0294 27.366 61.1345C27.2836 61.3351 27.2587 61.5544 27.2939 61.7683C27.3292 61.9821 27.4233 62.182 27.5658 62.3456C27.7082 62.5093 27.8934 62.6303 28.1008 62.6953C28.3081 62.7603 28.5295 62.7666 28.7402 62.7135C33.4308 61.3316 37.5224 58.424 40.3627 54.4541C40.4676 54.3123 40.5301 54.1439 40.543 53.9682L40.582 53.9682C40.7259 53.8797 40.8486 53.7609 40.9413 53.62C41.0341 53.4791 41.0947 53.3196 41.1189 53.1527C41.143 52.9859 41.1302 52.8159 41.0812 52.6545C41.0322 52.4932 40.9483 52.3446 40.8354 52.2192C41.0426 51.9196 41.2345 51.6099 41.4105 51.2912C41.5348 51.3613 41.6727 51.4045 41.815 51.4178C41.9573 51.4311 42.1007 51.4143 42.236 51.3684C42.3713 51.3225 42.4954 51.2486 42.6 51.1516C42.7046 51.0545 42.7875 50.9365 42.8432 50.8053C45.4211 45.8836 48.0039 40.8939 47.2437 35.1949C47.218 34.9106 47.1036 34.6414 46.9165 34.4253C46.7295 34.2091 46.4792 34.0569 46.2008 33.99L46.2008 33.3049C46.3561 33.1135 46.4328 32.8704 46.4152 32.6248C46.3421 31.5607 46.2203 30.453 46.04 29.3307C46.1877 29.3208 46.3321 29.2819 46.4646 29.2161C46.5972 29.1503 46.7154 29.059 46.8124 28.9474C46.9093 28.8358 46.9832 28.7062 47.0296 28.566C47.076 28.4258 47.0941 28.2778 47.0828 28.1306C46.9943 24.0732 45.8743 20.1046 43.8276 16.5965C43.1063 15.4013 41.966 13.9535 40.7331 13.5745C40.7813 13.377 40.774 13.1701 40.7121 12.9764C40.6503 12.7828 40.5361 12.6098 40.3822 12.4765C39.4785 11.6462 38.6212 10.7671 37.8141 9.84317C37.6949 9.69649 37.5384 9.5844 37.361 9.51859C37.1836 9.45279 36.9916 9.43568 36.8053 9.46906L36.6055 9.3233L36.6055 9.26014C35.4944 6.1264 30.4458 4.02752 27.556 3.0461C24.4664 1.99666 19.4129 0.835471 16.2795 2.40477ZM35.7722 20.7262C35.9012 20.8435 36.0594 20.924 36.2303 20.9595C37.278 21.1878 38.3257 21.4064 39.3735 21.6299C40.8821 24.2997 42.0292 27.1571 42.7847 30.1275C42.8483 30.3508 42.9793 30.5493 43.1599 30.6959C43.1599 31.4879 43.1599 32.2749 43.1599 33.0669C43.0284 35.7585 42.775 38.4112 42.3754 41.1029C42.1304 41.2382 41.9408 41.4548 41.8393 41.715C41.2935 43.0686 40.6787 44.3935 39.9972 45.6844C39.9059 45.7322 39.8208 45.7909 39.7438 45.8594C37.7935 47.6184 36.3998 49.9062 35.7332 52.4426L35.7332 52.5204C33.5769 53.4231 31.5287 54.5639 29.6271 55.9213C28.6915 56.3635 27.7412 56.7764 26.7763 57.1505C25.7205 57.4226 24.663 57.6915 23.6039 57.9571C21.921 57.9733 20.2385 57.8922 18.565 57.7141C18.5406 57.7141 18.5163 57.6753 18.487 57.6607L12.0301 54.1431C11.7848 54.0025 11.4971 53.9541 11.2191 54.0067C10.9411 54.0592 10.6911 54.2093 10.5145 54.4298L9.76406 54.1431C9.34496 53.7739 8.94049 53.3917 8.55064 52.9965C7.79609 51.8304 7.33324 50.5008 7.20096 49.1194C7.06867 47.738 7.27082 46.3451 7.79042 45.0577C7.88138 44.8619 7.9044 44.6416 7.85588 44.4313C7.80735 44.2211 7.69002 44.0329 7.5224 43.8965L7.9025 43.2309C8.09739 43.1411 8.26537 43.0021 8.38982 42.8276C8.87714 42.128 9.39857 41.4187 9.90051 40.7142C10.0021 40.8058 10.1213 40.8759 10.2509 40.9203C10.3805 40.9647 10.5178 40.9824 10.6544 40.9724C10.7911 40.9624 10.9242 40.9249 11.0459 40.8622C11.1676 40.7994 11.2753 40.7127 11.3625 40.6073C14.7201 36.5601 17.9997 32.4644 21.0552 28.2278C22.7657 26.9111 24.3787 25.4779 25.9771 24.0689C27.0591 23.7148 28.105 23.2593 29.1008 22.7085C29.2477 22.76 29.4038 22.7799 29.5589 22.7668C31.3327 22.6308 32.2538 21.3773 33.8814 20.8963C34.5 20.7286 35.1433 20.671 35.7819 20.7262L35.7722 20.7262ZM21.0552 5.55795C22.5752 5.92702 24.0722 6.3845 25.5385 6.92805C26.2549 7.22928 26.9615 7.53051 27.6584 7.81716C29.247 9.06094 30.9283 10.1833 32.2245 11.738L32.4633 12.2238C32.7411 14.0506 32.3756 16.1107 31.976 17.782L31.3863 18.6759L31.0988 18.8411C29.6369 19.2395 28.1749 19.6817 26.7373 20.2064C26.5609 20.1791 26.3805 20.1941 26.211 20.2501C25.2003 20.5615 24.2461 21.0323 23.3846 21.6445C23.2416 21.7448 23.1178 21.8699 23.0191 22.0138L22.7949 22.1401C22.7171 22.1334 22.6388 22.1334 22.561 22.1401C22.1955 22.1984 21.83 22.247 21.4597 22.2955C21.3964 22.2919 21.3329 22.2919 21.2696 22.2955C21.1088 22.2955 20.9529 22.349 20.7823 22.3733C20.1196 22.451 19.4568 22.5093 18.7892 22.5579C18.6219 22.3277 18.3943 22.1479 18.1313 22.038C17.8378 21.5196 17.5123 21.0198 17.1567 20.5416L14.8663 15.7608C14.7929 15.5994 14.679 15.4596 14.5356 15.3549C14.3922 15.2502 14.2241 15.1842 14.0476 15.1632C13.4189 13.7494 12.7367 12.355 12.0642 10.9703C11.999 9.9558 12.2547 8.94643 12.7952 8.08438L12.9755 7.81716C13.9598 7.54759 14.9098 7.16612 15.8068 6.68027C17.4637 5.70857 18.8866 5.54824 20.7872 5.54824C20.8651 5.55397 20.9432 5.55397 21.0211 5.54824C21.0211 5.54824 21.0552 5.55795 21.0552 5.55795Z" fill="#EA868D"/>
<path d="M8.02427 47.827C8.28742 50.9025 10.8215 52.6856 13.6967 53.8856C14.9994 54.6578 16.457 55.1339 17.9656 55.28L18.5893 55.4501C18.728 55.492 18.8738 55.5054 19.0179 55.4895C19.162 55.4736 19.3013 55.4288 19.4275 55.3577C20.417 55.3601 21.4049 55.2789 22.3807 55.1148C23.8738 54.9191 25.3341 54.5253 26.7227 53.9439L26.8201 53.9099C26.9127 53.871 27.0053 53.837 27.093 53.7982C28.2772 53.2783 27.4341 51.3057 26.211 51.7139L25.8016 51.8499C25.6603 51.7391 25.496 51.6611 25.3207 51.6216C25.1453 51.582 24.9634 51.582 24.788 51.6215C20.5532 52.394 16.7034 51.3349 13.1898 48.9299C12.5125 48.4441 11.7279 49.0465 11.5622 49.717C11.4984 49.742 11.4379 49.7747 11.3819 49.8142C10.7656 49.1898 10.3631 48.3871 10.2318 47.521C10.0613 46.2626 7.89757 46.5444 8.02427 47.827Z" fill="#E8606D"/>
<path d="M36.7419 22.2956C35.2069 22.5434 33.7011 22.8641 32.205 23.2673C32.1031 23.2542 31.9999 23.2542 31.898 23.2673C24.9829 23.7823 20.4704 28.6117 17.3857 34.3642C17.2081 34.3513 17.0298 34.3753 16.862 34.4347C16.6943 34.4941 16.5407 34.5875 16.411 34.7091C14.7866 36.1861 13.1882 37.6939 11.6158 39.2324C11.3495 39.1579 11.0659 39.1727 10.8088 39.2745C10.5517 39.3763 10.3353 39.5596 10.1929 39.796C9.3125 41.1595 8.33537 42.4584 7.26895 43.6828C7.03402 43.9441 6.90986 44.286 6.92258 44.6366C6.93531 44.9873 7.08392 45.3194 7.33717 45.563C7.20138 46.1358 7.16839 46.7279 7.23971 47.3121C7.27255 47.5163 7.37187 47.7041 7.52236 47.8465C6.7329 48.7697 7.68804 50.0037 8.76502 49.8385C8.85468 49.8888 8.94942 49.9295 9.04766 49.96V49.96C8.98213 50.174 8.97281 50.4012 9.02059 50.6198C9.06838 50.8385 9.17166 51.0412 9.32056 51.2086C10.3257 52.3144 11.6505 53.0818 13.1119 53.4047C15.9871 54.9837 18.9597 56.4801 22.3319 56.1303C25.108 55.7991 27.783 54.8886 30.1826 53.4581C30.3824 53.3464 30.5774 53.2298 30.7723 53.1083C32.4532 52.7082 34.0393 51.9836 35.4408 50.9754C38.199 48.828 39.5732 44.4942 40.6502 41.375C40.7074 41.1997 40.7227 41.0135 40.6948 40.8312C40.6669 40.649 40.5965 40.4758 40.4894 40.3256L40.6015 39.9952C41.4178 37.7564 41.6164 35.3403 41.1765 32.9989C41.6809 31.47 41.643 29.8148 41.0693 28.3105C40.9406 27.7682 40.7126 27.2543 40.3968 26.7946C40.3535 26.738 40.3063 26.6844 40.2555 26.6343C40.0472 26.3042 39.8072 25.9951 39.5391 25.7111C39.613 25.2781 39.5453 24.8328 39.3461 24.4409C39.147 24.049 38.8269 23.7313 38.4329 23.5345C38.367 23.1498 38.1538 22.8057 37.8384 22.5746C37.523 22.3435 37.1299 22.2434 36.7419 22.2956V22.2956ZM35.2264 39.0818C35.4603 38.8583 35.7137 38.6348 35.933 38.4065C35.8306 38.6882 35.7283 38.9798 35.6357 39.2713C35.5125 39.1829 35.3736 39.1186 35.2264 39.0818V39.0818Z" fill="#B2565D"/>
<path d="M15.6947 7.59856C15.5341 7.69942 15.4043 7.84226 15.3195 8.01153C14.3462 8.58055 13.5656 9.42647 13.0778 10.4408C12.9451 10.7276 12.9163 11.0515 12.9963 11.3571C13.0763 11.6628 13.2601 11.9313 13.5164 12.117C13.1753 14.4685 14.9784 16.8103 17.1226 18.3213C17.2909 18.5738 17.4907 18.804 17.7171 19.0064C17.9892 19.6075 18.4883 20.0772 19.1059 20.3133C19.1024 20.4986 19.1543 20.6807 19.2549 20.8364C19.3556 20.9922 19.5005 21.1145 19.6712 21.1878C21.5133 21.9749 23.5698 21.0858 25.3339 20.4153C27.6609 19.4946 29.9267 18.4268 32.1173 17.2184C33.3307 16.5771 32.4974 14.6677 31.1914 15.0272L31.0501 15.0612C31.2318 14.8331 31.3274 14.5486 31.3203 14.2574C31.3132 13.9662 31.2038 13.6867 31.0111 13.4676C31.055 11.8935 29.4907 10.6546 27.8679 10.1541C27.7645 9.95529 27.6097 9.78757 27.4196 9.66829C26.3311 8.94101 25.1427 8.37478 23.8914 7.98724C23.8476 7.80235 23.7602 7.63053 23.6364 7.48605C23.5127 7.34156 23.3562 7.22857 23.1799 7.15643C20.9188 6.2819 17.8048 6.33048 15.6947 7.59856ZM21.2501 10.0715L21.6205 10.2173C22.3466 10.7906 23.0824 11.3348 23.8524 11.8595C24.0333 12.2204 24.1959 12.5901 24.3397 12.9672C24.2397 13.1115 24.1776 13.2786 24.1594 13.4531C23.7837 14.0608 23.4873 14.7139 23.2774 15.3965C23.2435 15.5227 23.2356 15.6545 23.254 15.7839C23.2724 15.9133 23.3168 16.0377 23.3846 16.1495C22.4099 16.2613 21.3963 16.3876 20.4607 16.5917C19.8428 16.038 19.1918 15.522 18.5114 15.0467C18.0272 14.3887 17.7149 13.621 17.6026 12.8127C17.4903 12.0043 17.5816 11.1809 17.8681 10.4165C18.9077 9.86242 20.1236 9.73682 21.255 10.0667L21.2501 10.0715Z" fill="#B2565D"/>
<path d="M19.7686 11.5145C19.4127 11.6652 19.1206 11.935 18.9427 12.2773C18.7648 12.6196 18.7122 13.0131 18.794 13.3899C18.9251 14.1181 19.3142 14.775 19.8905 15.241C20.2047 15.481 20.5838 15.6217 20.979 15.6451C21.3741 15.6685 21.7672 15.5734 22.1078 15.3722C22.4802 15.119 22.7491 14.7408 22.8654 14.3065C22.9817 13.8722 22.9376 13.4107 22.7413 13.0061C22.3994 12.2582 21.7737 11.6762 21.0016 11.3882C20.7978 11.3272 20.584 11.3069 20.3724 11.3286C20.1609 11.3503 19.9556 11.4135 19.7686 11.5145Z" fill="#E0DADB"/>
<path d="M33.3892 22.5142C27.3367 22.1692 20.792 29.6319 18.1702 33.9074L18.1312 33.9705C17.5335 34.4791 16.9617 35.0119 16.4159 35.569C14.9539 36.7933 13.5748 38.0614 12.2591 39.4169C10.3537 41.3603 7.59056 44.1005 8.36052 47.0302C8.18661 47.2569 8.06964 47.5218 8.0194 47.8027L7.98041 48.0068C7.77574 49.1437 8.2728 50.4943 9.52034 50.8004C9.8893 51.1723 10.2923 51.509 10.724 51.8061C11.418 52.3098 12.1728 52.7244 12.9705 53.0402C13.4757 53.2364 13.9934 53.3988 14.5202 53.5261C17.7463 55.2314 21.8738 55.7513 25.2022 55.4257C28.9594 55.0565 32.1952 53.4143 34.3492 50.6304C34.6682 50.6824 34.9952 50.656 35.3018 50.5536C35.6083 50.4511 35.8852 50.2757 36.1084 50.0425C38.9007 47.1663 40.3383 43.0997 41.0742 39.2226C41.1262 38.9269 41.1262 38.6244 41.0742 38.3286C41.0658 37.9513 40.9582 37.5827 40.7623 37.2598C40.7623 37.148 40.7623 37.0314 40.7623 36.9197L40.7623 36.8176C41.2837 35.1171 41.3276 33.509 40.5137 32.2166C41.1064 30.8756 41.1707 29.3613 40.6941 27.9751C40.5305 27.5075 40.2342 27.0974 39.8412 26.7945C39.8445 26.6068 39.8265 26.4194 39.7876 26.2358C39.466 24.8122 38.6181 23.3207 37.2877 22.6599C36.683 22.3692 36.0246 22.2062 35.3537 22.1811C34.6828 22.156 34.014 22.2694 33.3892 22.5142V22.5142Z" fill="#E02239"/>
<path d="M17.1566 7.07379C15.0563 7.61794 12.8877 9.19696 12.9024 11.5825C12.9024 14.1867 15.6118 17.2718 16.9666 19.3561C17.2738 19.8557 17.7597 20.2203 18.3262 20.3764C18.4433 20.8085 18.7168 21.1822 19.0938 21.4253C19.4708 21.6684 19.9247 21.7638 20.3681 21.6931C22.1189 21.56 23.8088 20.9939 25.2851 20.046C25.6281 19.8139 25.9538 19.5574 26.2597 19.2784C27.4717 19.2667 28.6351 18.802 29.5199 17.9763C29.7506 17.7639 29.958 17.5278 30.1388 17.2718C30.7313 17.0819 31.2303 16.6765 31.5364 16.1363C31.8425 15.596 31.9334 14.9607 31.7908 14.3567C31.6002 13.3243 31.1863 12.3457 30.5779 11.489C29.9694 10.6324 29.181 9.91816 28.2675 9.39616C27.8517 9.17437 27.3817 9.07361 26.9112 9.1054C26.4407 9.13719 25.9887 9.30023 25.6067 9.57592C24.573 8.41386 23.2336 7.56358 21.7402 7.12136C20.2468 6.67915 18.659 6.66267 17.1566 7.07379V7.07379ZM21.0942 11.7477C21.6665 12.0093 22.1531 12.4267 22.4979 12.9519C22.8428 13.477 23.0319 14.0886 23.0434 14.7162C23.0575 14.9995 23.1235 15.2778 23.2384 15.5373C22.5065 16.0185 21.7392 16.4441 20.9431 16.8103C20.3827 15.8386 19.7979 14.9154 19.2131 13.9729C18.9061 13.487 18.6186 12.9526 18.2775 12.4716C17.7902 11.8108 17.6927 11.9372 18.0484 11.6165C18.6868 11.0238 20.4119 11.4222 21.0893 11.7428L21.0942 11.7477Z" fill="#E02239"/>
<path d="M12.2835 59.094C14.7688 61.7419 18.1751 62.3735 21.6546 62.6067C25.1666 62.8377 28.6934 62.5313 32.1124 61.6981C32.9091 61.519 33.6963 61.3001 34.471 61.0422C37.2975 60.0997 36.162 55.8242 33.2381 56.5724C31.0519 57.1344 28.8243 57.5227 26.5765 57.7336C25.5314 57.716 24.4897 57.6103 23.4625 57.4178C23.0918 57.3441 22.7085 57.3624 22.3466 57.4712C22.1992 57.4547 22.0505 57.4547 21.9031 57.4712C20.7724 57.6709 19.6074 57.4606 18.6186 56.8785C18.3322 56.6928 18.0034 56.5821 17.6627 56.5566C17.322 56.5311 16.9803 56.5917 16.6693 56.7327C16.2421 56.5147 15.8442 56.2437 15.4851 55.9262C13.3361 53.9974 10.3342 56.9708 12.2835 59.094Z" fill="#E08582"/>
<path d="M17.644 1.90438C17.2056 1.76053 16.7325 1.76053 16.2941 1.90438C14.9386 2.34707 13.6387 2.94373 12.4199 3.6826C11.421 4.24044 10.6155 5.08757 10.11 6.11186C9.84543 6.21433 9.61084 6.38138 9.4278 6.59771C8.82893 7.29088 8.3631 8.08799 8.05356 8.94924C7.97624 9.23337 7.95624 9.52998 7.99472 9.82187C8.0332 10.1138 8.12939 10.3952 8.27773 10.6497C8.44879 10.9282 8.67616 11.1681 8.94536 11.3542C8.94105 12.1943 9.05088 13.0311 9.27186 13.8418C9.37761 14.2125 9.58125 14.548 9.86151 14.8135C9.90347 15.0225 9.96886 15.2263 10.0564 15.4208C10.8243 17.1079 11.7152 18.7367 12.7221 20.2939C12.9271 20.6141 13.2062 20.8807 13.5359 21.0712C13.5594 21.237 13.6002 21.3998 13.6577 21.5571C13.4668 21.8913 13.3583 22.266 13.341 22.6503C13.2874 24.1564 13.1948 25.6771 13.2386 27.1833C13.1899 27.2804 13.1412 27.3776 13.1022 27.4748C13.0116 27.6902 12.9649 27.9214 12.9649 28.155C12.9649 28.3885 13.0116 28.6198 13.1022 28.8351C11.3966 31.1429 9.83715 33.5868 8.229 35.8266C8.14103 35.9489 8.06437 36.079 7.99996 36.2152C7.93661 36.2492 7.87813 36.2881 7.81478 36.3318C5.37819 38.1003 3.11704 40.2672 2.37144 43.2941C1.56249 46.593 2.61022 49.96 3.99908 52.9431C4.13358 53.2438 4.3475 53.5024 4.61797 53.6913C4.77298 54.1975 5.08954 54.6393 5.51951 54.9497C5.8054 55.1699 6.09455 55.3869 6.38694 55.6007C6.45728 55.6503 6.53051 55.6958 6.60623 55.7368C8.94539 57.3869 11.3868 58.8879 13.916 60.2309C14.2035 60.3815 14.4959 60.5515 14.8029 60.7167C15.0194 61.0234 15.3114 61.2693 15.6508 61.4309C21.7228 64.2877 29.1544 64.2246 34.7586 60.2357C35.1052 60.0052 35.3835 59.6861 35.5643 59.3118C35.7452 58.9375 35.822 58.5217 35.7868 58.1077C37.1176 57.5563 38.2553 56.6249 39.0567 55.4307C40.5187 53.0937 42.2779 51.2232 43.2915 48.5899C44.5293 45.3735 45.9766 42.1038 46.2544 38.6445C46.3118 38.1392 46.1684 37.6317 45.8548 37.2307C46.6832 34.437 46.5078 31.4587 45.8256 28.6311C46.2668 28.4889 46.6527 28.2131 46.9295 27.8422C47.2064 27.4713 47.3604 27.0236 47.3704 26.5614C47.4013 25.6906 47.3703 24.8187 47.2778 23.9523C47.1608 22.7912 46.3275 21.6543 45.0312 21.7126C44.7985 21.7255 44.5688 21.7713 44.349 21.8486C43.9494 20.454 43.3919 19.1092 42.6872 17.8403C42.8168 17.604 42.8919 17.3418 42.9071 17.0728C42.9223 16.8039 42.8771 16.535 42.7749 16.2856C41.9013 14.2377 40.7662 12.3108 39.3978 10.5525C39.1495 10.1782 38.798 9.88333 38.3857 9.70321C37.9734 9.5231 37.5177 9.46543 37.0733 9.53712C36.8151 9.20188 36.5519 8.8715 36.2741 8.56541C36.186 8.13734 35.9723 7.74503 35.6601 7.43824C31.1573 2.83236 23.9791 0.67032 17.644 1.90438ZM38.3062 21.1052C38.4037 21.1052 38.506 21.1295 38.6035 21.1393C39.2468 22.111 39.4027 23.3207 39.6902 24.4042C40.0752 25.8617 40.5869 27.2367 41.0109 28.6651C41.9075 31.6725 41.8296 34.2621 41.1278 37.289C41.0159 37.6627 41.0105 38.0601 41.112 38.4367C41.2136 38.8133 41.4181 39.1544 41.7028 39.4219C41.3032 41.7539 40.2409 44.0132 39.4076 46.1946C38.5743 48.3761 37.1854 49.7705 35.9135 51.675C35.2849 52.6467 35.0461 53.3075 33.9935 53.8419C32.8524 54.3315 31.6763 54.7359 30.475 55.0517C28.2383 55.7756 25.1779 57.1797 22.7949 57.0971C22.4678 57.0831 22.1424 57.1499 21.8474 57.2914C21.5524 57.4329 21.297 57.6449 21.1039 57.9085C20.6408 57.7038 20.1154 57.6898 19.642 57.8696C18.9743 58.098 15.0125 55.4404 14.033 54.8817C11.9521 53.667 9.93948 52.3504 7.93661 50.9948C7.21538 48.9494 6.31871 46.6853 6.83527 44.5039C7.32259 42.4924 9.06231 41.1418 10.5974 39.9126C10.9213 39.6613 11.1513 39.3088 11.2504 38.9117C11.6279 38.7342 11.9522 38.4612 12.1909 38.1198C12.7269 37.3764 13.2581 36.5942 13.7893 35.7974C14.9637 35.4622 16.0066 34.4273 16.7571 33.4605C18.1215 31.7065 19.5299 29.9672 20.792 28.1161C20.942 27.9077 21.0471 27.6706 21.1007 27.4198C21.1544 27.169 21.1555 26.9098 21.1039 26.6585C21.2794 26.5176 21.4499 26.3719 21.6302 26.2358C25.5824 23.2381 30.402 23.3207 34.856 21.5522C35.2215 21.4114 35.5474 21.1847 35.8063 20.8915L35.9233 20.8915C36.7237 20.8531 37.5256 20.925 38.3062 21.1052ZM33.1114 16.2467C32.7975 16.6723 32.56 17.1491 32.4097 17.6557C27.6145 18.8217 23.0045 19.5262 18.9159 22.6405C18.6256 21.5439 18.1844 20.4926 17.605 19.5165C17.4096 19.1348 17.1041 18.82 16.7278 18.6128C16.6793 18.4278 16.6107 18.2486 16.5231 18.0784C15.685 16.4313 14.7542 14.828 13.8916 13.1907C13.8092 13.0394 13.7059 12.9004 13.5846 12.7777C13.4549 11.5243 13.6218 10.2579 14.0719 9.08042C14.1707 8.81187 14.2025 8.5234 14.1645 8.23989C14.564 7.9514 14.9918 7.70398 15.4413 7.5014C16.1674 7.12729 16.9033 6.80177 17.644 6.41309C17.6781 6.41309 17.7073 6.41309 17.7414 6.41309C20.5191 6.35965 23.2091 6.41309 25.7286 6.99611C25.7497 7.34402 25.8581 7.68108 26.0437 7.97646C26.2293 8.27183 26.4862 8.51609 26.7909 8.68688C28.4673 9.71688 30.0462 10.8441 31.6008 12.0247C32.015 13.3462 32.4341 14.6823 32.9604 15.9455C33.0062 16.0489 33.0583 16.1495 33.1163 16.2467L33.1114 16.2467Z" fill="#E06D69"/>
<path d="M11.1285 2.48251C5.01265 6.85517 6.74263 11.427 10.0564 16.5285C10.7309 17.6042 11.234 18.7777 11.5476 20.0072C13.3653 26.0998 8.98429 31.8668 5.11011 36.701C1.46498 41.2438 -1.32735 46.3695 1.56244 52.0734C7.01065 62.733 21.6058 66.6441 32.1952 62.1888C44.5731 56.9854 49.0662 43.0268 48.2767 30.5113C47.5116 18.2484 40.7915 6.57824 29.0325 1.88491C23.5551 -0.301419 16.2161 -1.15166 11.1285 2.48251ZM30.0998 5.01866C40.6209 10.2999 45.9083 21.5911 45.9083 32.9843C45.9083 44.5476 41.2545 56.9611 29.2762 60.6778C24.0337 62.2873 18.3783 61.896 13.4091 59.5798C8.65778 57.374 2.5322 52.5884 2.68814 46.7825C2.86845 40.6267 9.48135 36.0597 12.2347 30.9534C14.8906 26.0269 14.7785 20.7505 12.1031 15.6928C11.7571 15.0369 11.2065 14.2353 11.2113 14.2353C10.0905 12.5008 9.98329 11.4513 9.91994 9.67798C9.84684 6.34989 12.2298 4.1004 15.2073 3.12869C20.0464 1.55939 25.6798 2.79345 30.1046 5.0138L30.0998 5.01866Z" fill="#201600"/>
<path d="M17.3515 5.21308C15.1147 5.5386 12.9657 6.85526 12.0544 8.97843C10.992 11.4514 12.2396 13.8369 13.4238 15.9893C14.7834 18.4817 16.1527 21.2025 18.8379 22.4948C21.2403 23.6609 23.3504 23.0487 25.3046 21.5911C25.5721 21.3912 25.8538 21.2109 26.1476 21.0518C26.5423 20.7166 29.7489 20.3911 30.4847 20.0558C31.4398 19.6352 32.2342 18.9199 32.7508 18.0153C33.9106 16.0038 33.6036 13.4385 32.3804 11.534C29.6904 7.33139 22.1711 4.51345 17.3515 5.21308ZM22.8972 8.34196C25.9186 9.31367 31.2352 11.3397 31.0598 15.2751C30.8941 19.0307 26.7519 17.5829 24.6516 19.1619C24.5383 19.2345 24.4211 19.301 24.3007 19.3611C24.1289 19.4438 23.9657 19.543 23.8134 19.6574C19.4762 22.9515 16.4403 16.7423 14.8029 13.4191C13.6967 11.1648 13.9988 8.91527 16.5572 7.89984C18.5893 7.11761 20.8992 7.70064 22.8972 8.34196Z" fill="#201600"/>
<path d="M16.913 12.0781C16.5036 14.1332 18.2434 16.4264 20.2755 16.8054C21.8641 17.1795 23.8378 16.6985 24.3787 15.1001C25.0512 13.1129 23.7647 10.8148 21.9421 9.95003C19.9879 9.0172 17.3711 9.7897 16.913 12.0781ZM21.216 12.0781C21.5644 12.2927 21.8507 12.5943 22.0464 12.9531C22.2421 13.3118 22.3405 13.7152 22.3319 14.1235C22.2783 14.5559 21.8982 14.76 21.4499 14.8183C21.3731 14.7879 21.2929 14.7667 21.2111 14.7551C20.7507 14.6789 20.3208 14.4762 19.9695 14.1698C19.6183 13.8634 19.3597 13.4654 19.2229 13.0206C18.794 11.6797 20.3778 11.5436 21.216 12.0732L21.216 12.0781Z" fill="#201600"/>
<path d="M20.1585 27.5427C19.9977 27.7905 18.5114 29.7388 18.3555 29.972C16.5719 32.7656 14.1597 35.088 11.6841 37.3812C8.97947 39.8834 5.74368 42.7547 5.62673 46.7339C5.39769 54.4492 16.0992 58.3457 22.3758 58.2097C30.1729 58.0445 37.2731 53.1908 40.8939 46.3938C42.8438 42.6456 43.8174 38.4688 43.7252 34.2475C43.6667 30.5356 43.043 25.8714 40.699 22.8397C37.892 19.2055 33.1602 19.8031 29.3981 21.4307C26.2598 22.7862 23.3115 24.3118 20.8749 26.6828L20.1585 27.5427ZM38.6864 25.0357C39.8998 26.9306 40.3773 29.5736 40.6356 31.7696C41.6395 40.2429 37.9651 48.9299 30.3142 53.1325C26.6856 55.1422 22.4526 55.782 18.3896 54.9351C14.8322 54.182 9.43268 51.7576 8.59449 47.7979C7.65397 43.3669 13.0096 39.9028 15.7581 37.216C17.6587 35.4522 19.2906 33.421 20.602 31.1866C20.7823 30.8854 20.8262 30.8562 20.9626 30.6425C23.2676 27.1346 28.1847 24.6665 32.1417 23.4713C34.5539 22.7522 37.1903 22.7425 38.6669 25.0552L38.6864 25.0357Z" fill="#201600"/>
<path d="M34.9194 31.4101C34.6221 34.6848 34.9827 37.8817 33.9447 41.0737C32.9879 43.9848 30.9872 46.4415 28.326 47.9728C27.3513 48.5461 27.9848 50.2126 29.1203 49.8482C36.5032 47.4821 38.5986 37.8963 37.2975 31.0895C37.0246 29.6659 35.0363 30.1518 34.9194 31.4101Z" fill="#201600"/>
<path d="M34.8122 25.9929C34.6351 26.0963 34.4873 26.2428 34.3824 26.4187C34.2776 26.5946 34.2192 26.7941 34.2128 26.9986C34.2179 27.2436 34.2867 27.483 34.4126 27.6934C34.509 27.8441 34.6415 27.9685 34.7982 28.0555C34.9548 28.1425 35.1307 28.1893 35.31 28.1917C35.4893 28.1941 35.6663 28.152 35.8253 28.0693C35.9842 27.9866 36.12 27.8657 36.2205 27.7177C36.2615 27.6714 36.2974 27.6209 36.3277 27.5671C36.4197 27.42 36.4764 27.2537 36.4934 27.0812C36.5129 26.9138 36.4931 26.7441 36.4356 26.5856C36.3781 26.4271 36.2844 26.2841 36.162 26.1678C35.9858 25.9978 35.7593 25.889 35.5162 25.8575C35.273 25.826 35.0261 25.8735 34.8122 25.9929Z" fill="#201600"/>
</svg>
