<svg width="62" height="63" viewBox="0 0 62 63" fill="none" xmlns="http://www.w3.org/2000/svg">
<path d="M56.9344 37.5186C54.4081 33.4317 51.8174 29.379 49.1624 25.3607C48.8752 24.9978 48.6229 24.6137 48.4081 24.2126C47.1731 22.3676 45.9281 20.5137 44.673 18.6507C42.6616 15.6938 40.608 12.7568 38.5121 9.83958C36.545 7.12638 34.7347 3.70914 32.0556 1.47792C27.3731 -2.44297 23.3906 2.26859 21.5139 5.97286C14.4359 19.9126 7.78021 34.031 1.39608 48.2144C-1.10809 53.213 -0.172794 56.6411 3.63475 59.2081C8.90256 62.7607 17.0969 62.7336 23.3724 62.9286C30.722 63.156 38.3371 62.8636 45.5359 61.3906C51.0571 60.2641 56.6206 58.0654 60.0178 53.8087C64.6098 48.052 60.223 42.8368 56.9344 37.5186ZM46.6763 26.9095C47.2596 27.7941 47.8369 28.6786 48.4081 29.5632C47.2013 30.4676 44.3411 32.0706 44.4437 29.444C44.4886 28.8674 44.7271 28.3166 45.1279 27.8642C45.5286 27.4117 46.0727 27.0789 46.6884 26.9095H46.6763ZM36.4183 11.9138C35.0787 12.7965 31.8806 13.5709 30.885 11.9408C29.7988 10.1537 32.6349 9.27095 34.3305 9.00017C35.0023 9.96775 35.6922 10.9389 36.4002 11.9138H36.4183ZM17.7124 20.2592C17.8271 20.0209 17.9417 19.7772 18.0564 19.5389C18.235 19.6024 18.4254 19.6355 18.6175 19.6364C21.5803 19.6364 24.1026 22.0571 22.8414 24.7324C22.5865 25.2889 22.1622 25.7698 21.6171 26.1201C21.072 26.4703 20.4281 26.6759 19.759 26.7132C19.0898 26.7504 18.4225 26.618 17.8333 26.3309C17.2441 26.0439 16.7568 25.6138 16.4271 25.0899C16.2598 24.8274 15.9949 24.6261 15.6789 24.5212C16.3608 23.0969 17.0366 21.6781 17.7245 20.2592H17.7124ZM8.49224 39.7932C8.68534 39.3654 8.85429 39.6199 9.05342 39.7228C9.25255 39.8257 9.37323 39.9394 9.53012 40.0206C11.98 41.7915 13.9471 44.4939 12.517 47.3479C11.1412 50.0882 6.82682 50.1207 5.08295 47.6675C5.04749 47.6222 5.00921 47.5788 4.9683 47.5375C6.13088 44.9452 7.30553 42.3638 8.49224 39.7932ZM37.5708 59.8309C33.9463 60.1654 30.3047 60.3281 26.6611 60.3183C26.5338 58.9146 26.8446 57.5069 27.5586 56.2529C28.2727 54.9989 29.3619 53.9481 30.7039 53.2184C34.8313 51.0901 38.132 55.9262 38.6569 58.9915C38.6909 59.2538 38.8227 59.4981 39.0311 59.6846L37.5708 59.8309ZM58.5153 50.7868C57.3085 53.1589 55.0276 54.9677 52.5476 56.2512C49.1021 58.0329 45.1497 58.9048 41.1973 59.4301C41.351 59.2749 41.4639 59.0906 41.5276 58.8909C41.5913 58.6913 41.6042 58.4813 41.5654 58.2766C40.8534 54.1174 36.364 48.7127 31.0117 50.1532C26.2568 51.4313 23.3966 55.9912 23.644 60.2695C21.1881 60.1991 18.7322 60.0529 16.2884 59.8255C12.9515 59.5113 9.22841 59.2027 6.29581 57.5996C4.34678 56.5165 2.7055 54.8323 2.67532 52.8177C2.71459 52.5666 2.77511 52.3186 2.85635 52.0757C3.24857 51.1984 3.37529 50.9926 3.67096 50.3536C6.68803 52.8177 11.7688 52.9206 14.4057 49.7795C18.2977 45.1438 14.4359 39.582 9.81975 36.9229C11.3243 33.6736 12.8469 30.4369 14.3876 27.2128C15.0832 27.9769 15.9795 28.5739 16.9957 28.9503C18.012 29.3266 19.1166 29.4706 20.2102 29.3691C21.3038 29.2676 22.3521 28.9239 23.2611 28.3689C24.1701 27.8139 24.9113 27.0649 25.418 26.1892C27.8317 21.9055 24.2112 17.3835 19.2572 16.9827C21.0674 12.9644 22.8776 8.82687 25.2913 5.13344C26.1361 3.82828 27.2343 2.30109 29.2799 2.9672C30.4867 3.36796 31.4099 5.06304 32.0918 5.98369L32.5142 6.56315C31.2182 6.8162 30.0318 7.40126 29.0989 8.2474C28.4351 8.86323 27.9827 9.63737 27.7954 10.4775C27.6082 11.3177 27.6941 12.1885 28.0429 12.986C29.7686 16.4249 34.9641 15.9105 37.9751 14.1721C40.3887 17.6091 42.7642 21.0715 45.1014 24.5591C43.854 25.0562 42.8258 25.9108 42.1782 26.989C41.5306 28.0672 41.3002 29.3079 41.5232 30.5163C41.6691 31.3379 42.1185 32.0916 42.7992 32.6564C43.4799 33.2211 44.3523 33.5641 45.2764 33.6303C47.0867 33.7494 48.5892 32.9371 49.9348 31.9568C52.0869 35.3145 54.1989 38.6938 56.2706 42.0948C57.9602 44.8297 60.1325 47.5808 58.5153 50.7706V50.7868Z" fill="#201600"/>
<path d="M50.7132 44.1528C50.5201 42.0245 48.6133 41.2825 46.7185 41.2067C46.536 41.1051 46.3292 41.0439 46.1151 41.028C44.2385 40.8709 42.8627 42.6527 42.9231 44.3965C42.9807 45.2801 43.4242 46.1077 44.1573 46.6997C44.8904 47.2918 45.8541 47.6006 46.8392 47.5592C48.7339 47.5159 50.9062 46.2378 50.7132 44.1528ZM47.6961 44.6293C47.4468 44.7676 47.1621 44.8459 46.8694 44.8568C46.5315 44.8568 45.8677 44.8026 45.7289 44.4236C45.6974 44.3421 45.6855 44.2557 45.6938 44.1698C45.7021 44.084 45.7305 44.0006 45.7772 43.9253C46.4772 43.8278 47.6176 43.6762 47.9616 44.2882C48.0098 44.4669 47.9555 44.4615 47.6659 44.6293H47.6961Z" fill="#201600"/>
<path d="M28.9782 43.4324C27.1679 45.8044 23.5113 44.1202 23.1613 41.6778C22.8294 39.36 25.8887 37.757 28.1213 38.683C29.8712 39.4087 31.4099 37.0584 29.6419 36.3436C25.0801 34.4427 19.1606 37.6379 20.2528 42.436C21.345 47.2341 28.3386 49.0104 31.591 44.8025C32.6952 43.3674 30.0824 42.0244 28.9782 43.4324Z" fill="#201600"/>
<path d="M32.4116 38.8508C30.4686 38.8508 30.4686 41.5587 32.4116 41.5587C34.3546 41.5587 34.3546 38.8508 32.4116 38.8508Z" fill="#201600"/>
<path d="M32.8159 27.6567H32.4116C32.0115 27.6567 31.6278 27.7994 31.3449 28.0533C31.062 28.3072 30.9031 28.6516 30.9031 29.0107C30.9031 29.3698 31.062 29.7142 31.3449 29.9681C31.6278 30.222 32.0115 30.3646 32.4116 30.3646H32.8159C33.216 30.3646 33.5997 30.222 33.8826 29.9681C34.1655 29.7142 34.3245 29.3698 34.3245 29.0107C34.3245 28.6516 34.1655 28.3072 33.8826 28.0533C33.5997 27.7994 33.216 27.6567 32.8159 27.6567Z" fill="#201600"/>
<path d="M19.1365 53.2943H18.7322C18.3321 53.2943 17.9484 53.437 17.6655 53.6909C17.3826 53.9448 17.2236 54.2892 17.2236 54.6483C17.2236 55.0073 17.3826 55.3517 17.6655 55.6056C17.9484 55.8596 18.3321 56.0022 18.7322 56.0022H19.1365C19.5366 56.0022 19.9203 55.8596 20.2032 55.6056C20.4861 55.3517 20.645 55.0073 20.645 54.6483C20.645 54.2892 20.4861 53.9448 20.2032 53.6909C19.9203 53.437 19.5366 53.2943 19.1365 53.2943Z" fill="#201600"/>
</svg>
