<svg width="49" height="64" viewBox="0 0 49 64" fill="none" xmlns="http://www.w3.org/2000/svg">
<path d="M11.1285 2.48251C5.01265 6.85518 6.74263 11.427 10.0564 16.5285C10.7309 17.6042 11.234 18.7777 11.5476 20.0072C13.3653 26.0998 8.98429 31.8668 5.11011 36.701C1.46498 41.2438 -1.32735 46.3695 1.56244 52.0734C7.01065 62.733 21.6058 66.6441 32.1952 62.1888C44.5731 56.9854 49.0662 43.0268 48.2767 30.5113C47.5116 18.2484 40.7915 6.57824 29.0325 1.88492C23.5551 -0.301417 16.2161 -1.15166 11.1285 2.48251ZM30.0998 5.01866C40.6209 10.2999 45.9083 21.5911 45.9083 32.9843C45.9083 44.5476 41.2545 56.9611 29.2762 60.6778C24.0337 62.2873 18.3783 61.896 13.4091 59.5798C8.65778 57.374 2.5322 52.5884 2.68814 46.7825C2.86845 40.6267 9.48135 36.0597 12.2347 30.9534C14.8906 26.0269 14.7785 20.7505 12.1031 15.6928C11.7571 15.0369 11.2065 14.2353 11.2113 14.2353C10.0905 12.5008 9.98329 11.4513 9.91994 9.67798C9.84684 6.34989 12.2298 4.1004 15.2073 3.12869C20.0464 1.55939 25.6798 2.79345 30.1046 5.0138L30.0998 5.01866Z" fill="#201600"/>
<path d="M17.3515 5.21308C15.1147 5.5386 12.9657 6.85526 12.0544 8.97843C10.992 11.4514 12.2396 13.8369 13.4238 15.9893C14.7834 18.4817 16.1527 21.2025 18.8379 22.4948C21.2403 23.6609 23.3504 23.0487 25.3046 21.5911C25.5721 21.3912 25.8538 21.2109 26.1476 21.0518C26.5423 20.7166 29.7489 20.3911 30.4847 20.0558C31.4398 19.6352 32.2342 18.9199 32.7508 18.0153C33.9106 16.0038 33.6036 13.4385 32.3804 11.534C29.6904 7.33139 22.1711 4.51345 17.3515 5.21308ZM22.8972 8.34196C25.9186 9.31367 31.2352 11.3397 31.0598 15.2751C30.8941 19.0307 26.7519 17.5829 24.6516 19.1619C24.5383 19.2345 24.4211 19.301 24.3007 19.3611C24.1289 19.4438 23.9657 19.543 23.8134 19.6574C19.4762 22.9515 16.4403 16.7423 14.8029 13.4191C13.6967 11.1648 13.9988 8.91527 16.5572 7.89984C18.5893 7.11761 20.8992 7.70064 22.8972 8.34196Z" fill="#201600"/>
<path d="M16.913 12.0781C16.5036 14.1332 18.2434 16.4264 20.2755 16.8054C21.8641 17.1795 23.8378 16.6985 24.3787 15.1001C25.0512 13.1129 23.7647 10.8148 21.9421 9.95003C19.9879 9.0172 17.3711 9.7897 16.913 12.0781ZM21.216 12.0781C21.5644 12.2927 21.8507 12.5943 22.0464 12.9531C22.2421 13.3118 22.3405 13.7152 22.3319 14.1235C22.2783 14.5559 21.8982 14.76 21.4499 14.8183C21.3731 14.7879 21.2929 14.7667 21.2111 14.7551C20.7507 14.6789 20.3208 14.4762 19.9695 14.1698C19.6183 13.8634 19.3597 13.4654 19.2229 13.0206C18.794 11.6797 20.3778 11.5436 21.216 12.0732L21.216 12.0781Z" fill="#201600"/>
<path d="M20.1585 27.5427C19.9977 27.7905 18.5114 29.7388 18.3555 29.972C16.5719 32.7656 14.1597 35.088 11.6841 37.3812C8.97947 39.8834 5.74368 42.7547 5.62673 46.7339C5.39769 54.4492 16.0992 58.3457 22.3758 58.2097C30.1729 58.0445 37.2731 53.1908 40.8939 46.3938C42.8438 42.6456 43.8174 38.4688 43.7252 34.2475C43.6667 30.5356 43.043 25.8714 40.699 22.8397C37.892 19.2055 33.1602 19.8031 29.3981 21.4307C26.2598 22.7862 23.3115 24.3118 20.8749 26.6828L20.1585 27.5427ZM38.6864 25.0357C39.8998 26.9306 40.3773 29.5736 40.6356 31.7696C41.6395 40.2429 37.9651 48.9299 30.3142 53.1325C26.6856 55.1422 22.4526 55.782 18.3896 54.9351C14.8322 54.182 9.43268 51.7576 8.59449 47.7979C7.65397 43.3669 13.0096 39.9028 15.7581 37.216C17.6587 35.4522 19.2906 33.421 20.602 31.1866C20.7823 30.8854 20.8262 30.8562 20.9626 30.6425C23.2676 27.1346 28.1847 24.6665 32.1417 23.4713C34.5539 22.7522 37.1903 22.7425 38.6669 25.0552L38.6864 25.0357Z" fill="#201600"/>
<path d="M34.9194 31.4101C34.6221 34.6848 34.9827 37.8817 33.9447 41.0737C32.9879 43.9848 30.9872 46.4415 28.326 47.9728C27.3513 48.5461 27.9848 50.2126 29.1203 49.8482C36.5032 47.4821 38.5986 37.8963 37.2975 31.0895C37.0246 29.6659 35.0363 30.1518 34.9194 31.4101Z" fill="#201600"/>
<path d="M34.8122 25.9929C34.6351 26.0963 34.4873 26.2428 34.3824 26.4187C34.2776 26.5946 34.2192 26.7941 34.2128 26.9986C34.2179 27.2436 34.2867 27.483 34.4126 27.6934C34.509 27.8441 34.6415 27.9685 34.7982 28.0555C34.9548 28.1425 35.1307 28.1893 35.31 28.1917C35.4893 28.1941 35.6663 28.152 35.8253 28.0693C35.9842 27.9866 36.12 27.8657 36.2205 27.7177C36.2615 27.6714 36.2974 27.6209 36.3277 27.5671C36.4197 27.42 36.4764 27.2537 36.4934 27.0812C36.5129 26.9138 36.4931 26.7441 36.4356 26.5856C36.3781 26.4271 36.2844 26.2841 36.162 26.1678C35.9858 25.9978 35.7593 25.889 35.5162 25.8575C35.273 25.826 35.0261 25.8735 34.8122 25.9929Z" fill="#201600"/>
</svg>
