<svg width="65" height="66" viewBox="0 0 65 66" fill="none" xmlns="http://www.w3.org/2000/svg">
<path d="M63.4056 30.4548C60.9516 21.1011 53.476 13.4372 44.5456 11.551H44.4576C44.1832 11.489 43.9036 11.458 43.6241 11.396C43.1064 11.3133 42.5887 11.2409 42.071 11.1944H41.8794C41.75 11.1944 41.662 11.1944 41.4911 11.1634C41.1546 11.1634 40.8181 11.1324 40.4557 11.1376C39.7206 11.1376 39.3944 11.1686 39.0372 11.1944C40.1816 9.63484 41.4414 8.16306 42.8061 6.79144C43.6344 5.98009 43.0701 4.20753 41.7707 4.32639C39.2453 4.57601 36.7721 5.20496 34.4348 6.19197C34.3831 4.61062 34.3261 3.02411 34.2692 1.44276C34.2555 1.15388 34.1593 0.874953 33.9918 0.63896C33.8243 0.402967 33.5927 0.21978 33.3242 0.111064C33.0557 0.00234753 32.7617 -0.0273503 32.4769 0.0254823C32.192 0.0783149 31.9283 0.211468 31.7169 0.409194C29.5265 2.17577 27.9829 4.61596 27.3268 7.34956C23.4233 6.65191 19.5612 6.36251 15.8078 8.03171C14.6275 8.5485 14.964 10.5226 16.1702 10.781C18.8194 11.4039 21.391 12.3191 23.8374 13.5096C19.4432 13.9591 15.2345 15.5118 11.6035 18.0229C7.97262 20.5341 5.0377 23.922 3.07233 27.8709C-2.62241 39.4468 0.670183 52.9141 11.4281 60.1646C22.0617 67.3323 37.6135 67.8388 48.9202 62.0043C60.5271 56.0148 66.7758 43.2038 63.4056 30.4548ZM30.0188 9.10662C30.2022 7.70981 30.688 6.3696 31.4425 5.17908C31.4839 6.26949 31.5305 7.3599 31.5823 8.45031C31.5872 8.70646 31.6585 8.95697 31.7893 9.17743C31.92 9.39789 32.1058 9.58079 32.3284 9.70829C32.551 9.83579 32.8029 9.90356 33.0596 9.90498C33.3162 9.90641 33.5689 9.84144 33.7929 9.71642C35.0446 9.00442 36.3688 8.42754 37.743 7.99554C36.9618 8.99584 36.2934 10.079 35.7498 11.2254C35.6855 11.3666 35.642 11.5163 35.6204 11.6699C34.6415 11.8995 33.6797 12.1965 32.7419 12.5587L30.1534 13.6336C29.8997 13.5974 29.6357 13.5716 29.3976 13.5406C27.5856 11.9475 25.5074 10.6846 23.2576 9.80944C24.8935 9.96017 26.5187 10.2104 28.124 10.5588C28.3464 10.609 28.5772 10.6098 28.7999 10.561C29.0226 10.5122 29.2318 10.415 29.4127 10.2764C29.5935 10.1378 29.7416 9.96111 29.8464 9.75895C29.9511 9.55678 30.01 9.33406 30.0188 9.10662ZM49.9918 58.4024C40.3729 64.5727 26.8246 64.9345 16.5585 60.0974C5.89382 55.0795 0.333675 43.9532 3.97313 32.5168C5.74231 26.9255 9.52976 22.19 14.6001 19.2296C19.6705 16.2691 25.6621 15.2951 31.4114 16.4966C32.4813 15.6086 33.6829 14.8921 34.9732 14.3726C35.1286 14.3106 35.3098 14.2434 35.491 14.1866C36.4504 13.8696 37.4575 13.721 38.4677 13.7473C48.0556 12.7137 57.0637 19.8247 60.2838 28.9924C64.1873 40.1703 59.9266 52.0408 49.9867 58.4024H49.9918Z" fill="#201600"/>
<path d="M15.4454 22.0416C12.884 23.9371 10.8664 26.4709 9.59438 29.3895C8.32239 32.308 7.84071 35.5089 8.19755 38.6716C8.3891 40.3047 10.9828 40.3202 10.7861 38.6716C10.4316 35.9618 10.7948 33.2065 11.8394 30.6803C12.884 28.1542 14.5735 25.9454 16.7397 24.2741C18.0598 23.2767 16.7707 21.0339 15.4454 22.0416Z" fill="#201600"/>
<path d="M13.8716 44.5164C13.6931 44.2264 13.4095 44.0163 13.0797 43.9297C12.75 43.843 12.3995 43.8866 12.1011 44.0513L11.5834 44.3097C11.2888 44.4843 11.0749 44.7675 10.9877 45.0981C10.9005 45.4288 10.9471 45.7805 11.1175 46.0771C11.296 46.3671 11.5796 46.5773 11.9093 46.6639C12.2391 46.7505 12.5896 46.7069 12.888 46.5422L13.4057 46.2838C13.7003 46.1093 13.9142 45.8261 14.0014 45.4954C14.0886 45.1647 14.042 44.8131 13.8716 44.5164Z" fill="#201600"/>
</svg>
