<svg width="25" height="27" viewBox="0 0 25 27" fill="none" xmlns="http://www.w3.org/2000/svg">
<path d="M7.38462 21.4349C6.03077 21.4349 4.92308 22.611 4.92308 24.0483C4.92308 25.4857 6.03077 26.6618 7.38462 26.6618C8.73846 26.6618 9.84615 25.4857 9.84615 24.0483C9.84615 22.611 8.73846 21.4349 7.38462 21.4349ZM0 0.527588V3.14101H2.46154L6.89231 13.072L5.16923 16.2081C5.04615 16.6001 4.92308 17.1228 4.92308 17.5148C4.92308 18.9522 6.03077 20.1282 7.38462 20.1282H22.1538V17.5148H7.87692C7.75385 17.5148 7.63077 17.3841 7.63077 17.2535V17.1227L8.73846 14.9013H17.8462C18.8308 14.9013 19.5692 14.3786 19.9385 13.5946L24.3692 5.10107C24.6154 4.83973 24.6154 4.70906 24.6154 4.44771C24.6154 3.66369 24.1231 3.14101 23.3846 3.14101H5.16923L4.06154 0.527588H0ZM19.6923 21.4349C18.3385 21.4349 17.2308 22.611 17.2308 24.0483C17.2308 25.4857 18.3385 26.6618 19.6923 26.6618C21.0462 26.6618 22.1538 25.4857 22.1538 24.0483C22.1538 22.611 21.0462 21.4349 19.6923 21.4349Z" fill="white"/>
</svg>
