<svg width="20" height="20" viewBox="0 0 20 20" fill="none" xmlns="http://www.w3.org/2000/svg">
<path d="M9.99996 0C15.5227 0 19.9998 4.47723 19.9998 9.99973C19.9998 15.5222 15.5227 20 10 20C4.47739 20 -4.19617e-05 15.5224 -4.19617e-05 9.99973C-4.19617e-05 4.47703 4.47732 0 9.99996 0ZM9.30942 11.2225C9.30995 11.2488 9.31389 11.2751 9.31755 11.3014C9.32015 11.3211 9.32135 11.3413 9.32582 11.3607C9.33029 11.3809 9.33795 11.4009 9.34449 11.4211C9.35229 11.4455 9.35955 11.4698 9.36975 11.4928C9.37169 11.4968 9.37235 11.5011 9.37409 11.5051C9.38915 11.5372 9.40662 11.5673 9.42575 11.5959C9.42695 11.5976 9.42855 11.5993 9.42975 11.6011C9.45155 11.6331 9.47642 11.6621 9.50255 11.6894C9.50982 11.6969 9.51722 11.7036 9.52489 11.7107C9.54789 11.7326 9.57209 11.7527 9.59782 11.771C9.60575 11.7767 9.61335 11.7827 9.62169 11.7883C9.65469 11.8099 9.68929 11.8289 9.72529 11.8445C9.73309 11.8479 9.74122 11.85 9.74916 11.8531C9.77956 11.8649 9.81036 11.8746 9.84216 11.882C9.85356 11.8847 9.86482 11.8872 9.87642 11.8893C9.91722 11.8967 9.95856 11.9019 10.0004 11.9019C10.0089 11.9019 10.0176 11.8993 10.026 11.8989C10.0662 11.8974 10.1059 11.8943 10.1441 11.8861C10.156 11.8835 10.1678 11.8783 10.1797 11.8751C10.2153 11.8654 10.2501 11.8547 10.2833 11.8398C10.2871 11.8379 10.2911 11.8375 10.2949 11.8358L14.1293 10.0272C14.4747 9.86433 14.6227 9.45213 14.4599 9.10666C14.297 8.76139 13.8848 8.61319 13.5393 8.77606L10.6916 10.119V4.14996C10.6916 3.76803 10.3819 3.45836 9.99996 3.45836C9.61802 3.45836 9.30835 3.76803 9.30835 4.14996V11.2101H9.30822C9.30822 11.2142 9.30942 11.2183 9.30942 11.2225Z" fill="white"/>
</svg>
