<svg width="30" height="30" viewBox="0 0 30 30" fill="none" xmlns="http://www.w3.org/2000/svg">
<path d="M14.9991 18.0029C16.654 18.0029 18.0032 16.6561 18.0032 15C18.0032 14.3462 17.7894 13.7426 17.4353 13.2496C16.8897 12.4931 16.0027 11.9971 15.0009 11.9971C13.9986 11.9971 13.1122 12.4925 12.5654 13.249C12.2101 13.742 11.998 14.3456 11.9974 14.9994C11.9956 16.6555 13.3436 18.0029 14.9991 18.0029Z" fill="white"/>
<path d="M21.557 11.3263V8.80918V8.43457L21.1806 8.43578L18.6647 8.44363L18.6743 11.336L21.557 11.3263Z" fill="white"/>
<path d="M15 0C6.72903 0 0 6.72903 0 15C0 23.2704 6.72903 30 15 30C23.2704 30 30 23.2704 30 15C30 6.72903 23.2716 0 15 0ZM23.5308 13.2496V20.2342C23.5308 22.0535 22.0517 23.532 20.2336 23.532H9.76637C7.94772 23.532 6.46923 22.0535 6.46923 20.2342V13.2496V9.76698C6.46923 7.94832 7.94772 6.46983 9.76637 6.46983H20.233C22.0517 6.46983 23.5308 7.94832 23.5308 9.76698V13.2496Z" fill="white"/>
<path d="M19.6661 14.9999C19.6661 17.572 17.5731 19.6662 14.9998 19.6662C12.4265 19.6662 10.3342 17.572 10.3342 14.9999C10.3342 14.3812 10.4574 13.7897 10.6773 13.2495H8.13062V20.2341C8.13062 21.1368 8.86352 21.8679 9.76559 21.8679H20.2322C21.1331 21.8679 21.8672 21.1368 21.8672 20.2341V13.2495H19.3193C19.541 13.7897 19.6661 14.3812 19.6661 14.9999Z" fill="white"/>
</svg>
