<?xml version="1.0" encoding="UTF-8" standalone="no"?>
<svg
   xmlns:dc="http://purl.org/dc/elements/1.1/"
   xmlns:cc="http://creativecommons.org/ns#"
   xmlns:rdf="http://www.w3.org/1999/02/22-rdf-syntax-ns#"
   xmlns:svg="http://www.w3.org/2000/svg"
   xmlns="http://www.w3.org/2000/svg"
   viewBox="0 0 450 200"
   height="200"
   width="450"
   xml:space="preserve"
   id="svg2"
   version="1.1"><metadata
     id="metadata8"><rdf:RDF><cc:Work
         rdf:about=""><dc:format>image/svg+xml</dc:format><dc:type
           rdf:resource="http://purl.org/dc/dcmitype/StillImage" /></cc:Work></rdf:RDF></metadata><defs
     id="defs6"><clipPath
       id="clipPath18"
       clipPathUnits="userSpaceOnUse"><path
         id="path16"
         d="M 0,500 H 1115 V 0 H 0 Z" /></clipPath></defs><g
     transform="matrix(1.3333333,0,0,-1.3333333,0,666.66667)"
     id="g10"><g
       id="g12"><g
         clip-path="url(#clipPath18)"
         id="g14"><g
           transform="translate(221.3809,421.0757)"
           id="g20"><path
             id="path22"
             style="fill:#ffffff;fill-opacity:1;fill-rule:evenodd;stroke:none"
             d="M 0,0 C 4.196,8.744 -4.387,32.287 -15.071,42.873 -28.1,55.78 -36.962,61.016 -57.164,61.079 c -21.7,0.068 -38.455,-12.352 -47.735,-27.436 -1.78,-2.893 -3.409,-6.804 -4.741,-10.137 -4.611,-11.54 -0.887,-12.988 -4.828,-17.879 -1.812,-2.249 -1.675,-2.365 -2.987,-4.844 -3.201,2.144 -3.682,5.22 -9.275,4.678 -4.116,-0.399 -7.759,-2.591 -8.734,-6.244 -5.869,1.567 -1.134,5.802 -12.516,3.145 -3.508,-0.819 -1.153,0.77 -8.626,0.77 0,9.465 -5.087,12.335 -15.596,10.898 -9.711,-1.328 -22.748,-20.397 -9.689,-33.051 5.673,-5.497 14.464,-4.655 20.587,-0.555 2.628,-0.702 2.888,-2.465 6.822,-1.44 2.378,0.619 3.525,2.716 4.14,5.355 l 2.108,-2.59 c 3.099,-3.371 8.245,-2.54 11.687,-0.964 2.408,1.102 0.257,0.936 2.646,0.424 8.954,-1.916 5.964,-0.749 12.531,0.781 -0.115,-5.184 -2.372,-14.632 0,-19.576 3.85,-1.847 6.908,0.146 8.407,3.339 1.095,2.333 2.556,7.575 2.556,10.756 h 1.566 c 1.938,-8.32 12.632,-19.888 18.779,-24.288 19.852,-14.207 46.224,-14.629 66.128,-1.109 2.291,1.556 3.827,3.149 6.041,4.921 4.284,3.429 10.224,10.08 11.991,15.416 1.408,4.255 -0.978,2.297 1.987,3.494 2.151,2.935 1.008,0.57 6.227,0.769 3.841,0.147 3.93,1.558 6.302,3.146 2.274,-1.523 1.051,-1.584 3.915,-2.349 0,-8.074 -0.037,-5.446 3.132,-10.179 h 4.698 c 1.652,2.467 1.322,2.332 2.469,5.36 0.799,2.11 1.657,3.144 2.229,5.602 7.17,0 5.303,-0.426 9.397,3.132 2.274,-1.523 1.05,-1.584 3.915,-2.349 0,-8.074 -0.037,-5.447 3.132,-10.179 h 4.698 c 1.986,2.966 3.763,6.949 4.698,10.962 9.265,0 7.383,0.866 9.559,0.983 2.003,0.109 4.05,-2.098 8.599,-0.37 5.526,2.099 10.624,11.711 1.418,11.916 1.302,5.589 6.473,13.35 -3.685,12.33 C 61.062,3.142 55.114,5.756 50.897,0 45.327,3.729 45.142,4.018 36.802,-1.566 34.026,0.293 35.115,1.198 31.312,1.621 27.091,2.089 26.309,0.829 24.014,0.488 17.026,-0.548 21.42,3.87 10.962,-3.132 5.39,0.6 9.783,0 0,0" /></g><g
           transform="translate(112.4121,428.9927)"
           id="g24"><path
             id="path26"
             style="fill:#f2b815;fill-opacity:1;fill-rule:evenodd;stroke:none"
             d="m 0,0 c 3.333,1.545 0.811,-0.764 3.766,7.983 1.027,3.042 2.386,6.266 3.751,8.791 C 16.247,32.929 34.608,43.83 54.67,41.663 74.128,39.561 89.146,26.412 94.984,9.407 97.769,1.292 95.773,-4.033 105.831,-4.944 104.855,41.109 54.453,67.562 17.014,35.486 10.641,30.026 -0.164,13.705 0,0" /></g><g
           transform="translate(212.0913,395.1704)"
           id="g28"><path
             id="path30"
             style="fill:#f2b815;fill-opacity:1;fill-rule:evenodd;stroke:none"
             d="m 0,0 c -3.781,-0.596 -4.095,-3.291 -9.34,-8.712 -15.879,-16.414 -46.182,-19.252 -67.758,-1.659 -11.933,9.731 -7.395,17.72 -20.024,16.759 4.966,-17.076 23.966,-33.352 45.562,-35.111 12.138,-0.989 22.983,2.045 32.09,7.431 C -13.558,-17.795 -1.275,-7.356 0,0" /></g><g
           transform="translate(177.9111,421.5044)"
           id="g32"><path
             id="path34"
             style="fill:#111111;fill-opacity:1;fill-rule:evenodd;stroke:none"
             d="m 0,0 c 0.024,-2.979 -0.082,-7.612 -1.362,-9.609 -5.145,-3.202 -11.664,-1.948 -8.672,-13.144 12.815,-7.37 14.32,13.198 14.008,24.088 l 8.55,1.589 c -1.64,-7.2 -7.825,-26.996 2.181,-28.932 C 11.25,-18.247 12.917,-6.62 14.498,2.64 20.246,3.887 20.126,1.819 23.56,0.665 24.602,12.921 9.719,6.428 3.535,4.647 3.393,4.808 3.2,5.282 3.135,5.15 3.057,4.989 2.695,5.71 2.355,6.135 -2.297,11.958 -8.294,12.45 -10.713,9.021 -12.595,6.353 -10.99,2.661 -9.501,1.417 -6.946,-0.717 -3.507,0.357 0,0" /></g><g
           transform="translate(141.9526,412.105)"
           id="g36"><path
             id="path38"
             style="fill:#111111;fill-opacity:1;fill-rule:evenodd;stroke:none"
             d="M 0,0 C -0.124,4.972 1.824,6.472 0.725,12.455 -4.347,10.32 -5.267,2.021 -9.563,-0.209 c 3.019,11.855 -0.239,15.29 -3.186,11.716 -1.961,-2.378 -0.168,0.58 0.462,-2.746 0.423,-2.227 0.198,-1.874 -0.294,-3.891 -2.716,-11.138 1.328,-10.706 4.596,-6.38 1.492,1.976 1.964,3.487 3.854,4.963 C -5.431,-12.312 3.542,0.877 6.642,4.168 6.447,2.219 5.934,0.875 6.042,-1.178 6.497,-9.826 17.35,-6.281 19.591,-0.492 16.582,-1.415 17.382,-3.086 13.196,-2.403 9.556,1.946 12.636,8.635 13.831,13.868 4.781,13.103 6.028,0.166 0,0" /></g><g
           transform="translate(282.4575,406.6694)"
           id="g40"><path
             id="path42"
             style="fill:#111111;fill-opacity:1;fill-rule:evenodd;stroke:none"
             d="m 0,0 c 1.671,-1.657 1.43,-3.266 5.314,-2.756 2.496,0.328 3.697,1.592 4.685,3.851 L 5.992,1.279 C 4.82,7.411 6.888,9.252 7.778,14.3 5.276,13.921 4.598,13.129 3.019,12.226 -5.599,21.285 -16.226,2.127 -8.882,-2.458 -5.107,-4.814 -2.431,-1.87 0,0" /></g><g
           transform="translate(102.5024,386.8901)"
           id="g44"><path
             id="path46"
             style="fill:#111111;fill-opacity:1;fill-rule:evenodd;stroke:none"
             d="m 0,0 c 3.023,1.601 0.8,-0.097 2.311,1.94 3.549,4.787 2.31,20.915 8.399,29.251 7.95,10.881 10.347,-4.727 2.382,-7.915 -2.121,3.115 0.093,3.035 -0.706,4.732 -6.702,-3.71 -2.952,-12.062 5.011,-6.692 7.558,5.096 4.056,23.242 -6.901,11.627 L 8.331,30.825 9.878,38.382 C 1.175,35.645 0.812,10.355 0,0" /></g><g
           transform="translate(225.4331,403.8921)"
           id="g48"><path
             id="path50"
             style="fill:#111111;fill-opacity:1;fill-rule:evenodd;stroke:none"
             d="m 0,0 c 0.442,2.283 8.756,19.344 -6.24,11.443 0.567,-2.34 -2.258,4.143 1.615,-2.029 2.969,-4.733 -1.327,-5.627 0.761,-12.388 6.081,-1.058 8.511,5.679 12.308,9.057 -1.054,-7.143 -3.416,-8.545 4.66,-8.462 -0.504,-4.903 -3.054,-7.47 1.043,-10.1 3.027,10.435 9.457,14.701 -2.411,12.032 0.364,6.03 3.6,9.923 4.563,14.47 C 7.954,13.857 6.265,2.829 0,0" /></g><g
           transform="translate(251.3862,405.5356)"
           id="g52"><path
             id="path54"
             style="fill:#111111;fill-opacity:1;fill-rule:evenodd;stroke:none"
             d="m 0,0 c 0.896,4.33 4.113,8.787 2.293,12.629 -3.01,1.419 -6.284,0.45 -8.724,-1.787 2.098,-2.029 3.147,-0.845 2.779,-5.149 -0.306,-3.579 -1.413,-4.57 -0.172,-8.605 3.865,-0.942 5.303,1.304 7.129,3.154 3.336,3.38 2.924,4.14 5.076,5.662 -0.616,-6.537 -3.421,-8.495 4.699,-8.296 -0.444,-4.281 -1.895,-6.254 0.061,-10.063 2.72,1.34 5.722,10.071 4.792,12.541 -3.207,1.248 -3.02,-0.045 -6.177,-0.549 0.185,5.514 3.702,9.777 4.656,14.555 C 7.602,13.436 5.467,1.456 0,0" /></g><g
           transform="translate(59.0205,407.4673)"
           id="g56"><path
             id="path58"
             style="fill:#111111;fill-opacity:1;fill-rule:evenodd;stroke:none"
             d="m 0,0 c -0.202,-0.065 -15.315,-10.127 -14.665,8.127 0.443,12.445 9.185,17.438 12.556,13.18 2.118,-3.662 -3.97,-8.146 3.317,-9.298 4.334,18.956 -16.274,14.413 -21.13,0.709 C -27.141,-7.653 -1.149,-9.021 0,0" /></g><g
           transform="translate(93.2603,421.9355)"
           id="g60"><path
             id="path62"
             style="fill:#111111;fill-opacity:1;fill-rule:evenodd;stroke:none"
             d="M 0,0 C -9.017,-3.331 -8.723,-19.522 1.414,-16.644 11.044,-13.909 9.967,3.682 0,0" /></g><g
           transform="translate(202.5879,403.5488)"
           id="g64"><path
             id="path66"
             style="fill:#111111;fill-opacity:1;fill-rule:evenodd;stroke:none"
             d="M 0,0 -0.422,1.269 C -0.928,5.11 0.983,6.858 -0.526,11.535 l -5.068,0.405 c 0.817,-3.79 1.55,-2.399 0.649,-7.319 -0.727,-3.97 -1.74,-4.825 -0.305,-8.801 6.043,-1.792 8.149,5.852 11.733,9.106 -2.52,-12.225 4.977,-10.6 8.306,-6.975 -1.153,1.079 -3.81,0.765 -3.401,6.233 0.253,3.38 1.392,5.48 1.763,8.582 C 6.647,12.769 4.238,3.046 0,0" /></g><g
           transform="translate(179.312,461.8232)"
           id="g68"><path
             id="path70"
             style="fill:#e51c1d;fill-opacity:1;fill-rule:evenodd;stroke:none"
             d="m 0,0 c -3.227,-0.742 -3.804,-0.398 -5.243,-2.898 -0.856,-1.487 -1.652,-3.645 -1.356,-5.203 0.865,-4.54 4.49,-7.416 9.231,-6.647 4.065,0.661 7.041,4.552 6.172,8.888 C 8.105,-2.376 5.084,1.169 0,0" /></g><g
           transform="translate(64.7749,403.9434)"
           id="g72"><path
             id="path74"
             style="fill:#111111;fill-opacity:1;fill-rule:evenodd;stroke:none"
             d="m 0,0 c 3.47,0.554 1.706,1.362 5.182,8.039 1.646,3.162 3.627,6.011 7.113,6.317 1.013,-4.54 -4.033,-8.226 -0.549,-13.597 4.074,-1.273 6.511,0.563 8.509,2.206 -2.012,1.902 -4.436,-0.059 -3.881,5.373 0.42,4.115 2.015,4.78 -1.375,7.461 -4.43,2.314 -5.763,-0.977 -8.735,-3.16 -0.091,0.151 -0.165,0.599 -0.199,0.49 -0.035,-0.11 -0.163,0.398 -0.214,0.493 -1.975,3.607 -4.733,3.184 -6.415,1.701 -1.51,-1.331 -0.964,0.658 0.54,-2.05 L 0.739,10.319 C 0.678,7.503 -1.326,3.831 0,0" /></g><g
           transform="translate(158.0625,390.5371)"
           id="g76"><path
             id="path78"
             style="fill:#e51c1d;fill-opacity:1;fill-rule:evenodd;stroke:none"
             d="m 0,0 c -6.742,-5.443 -1.176,-17.211 7.975,-12.762 3.33,1.619 4.873,6.232 2.783,10.21 C 9.197,0.42 3.476,2.807 0,0" /></g><g
           transform="translate(155.0078,465.0327)"
           id="g80"><path
             id="path82"
             style="fill:#e51c1d;fill-opacity:1;fill-rule:evenodd;stroke:none"
             d="m 0,0 c -14.833,-3.347 0.7,-22.444 7.493,-10.958 1.034,1.75 1.458,4.014 1.079,5.644 C 7.6,-1.125 4.452,1.004 0,0" /></g><g
           transform="translate(139.0112,401.8037)"
           id="g84"><path
             id="path86"
             style="fill:#e51c1d;fill-opacity:1;fill-rule:evenodd;stroke:none"
             d="M 0,0 C -9.775,-2.067 -5.396,-13.914 2.133,-12.472 10.231,-10.922 8.245,1.744 0,0" /></g><g
           transform="translate(135.3301,452.519)"
           id="g88"><path
             id="path90"
             style="fill:#e51c1d;fill-opacity:1;fill-rule:evenodd;stroke:none"
             d="M 0,0 C -10.292,-2.104 -5.351,-14.113 1.927,-12.491 10.368,-10.61 7.355,1.504 0,0" /></g><g
           transform="translate(191.0146,444.4136)"
           id="g92"><path
             id="path94"
             style="fill:#e51c1d;fill-opacity:1;fill-rule:evenodd;stroke:none"
             d="m 0,0 c -2.916,-1.926 -4.12,-4.543 -2.241,-8.118 1.555,-2.958 5.092,-4.784 8.918,-2.619 C 13.593,-6.825 7.718,5.099 0,0" /></g><g
           transform="translate(185.1479,392.1006)"
           id="g96"><path
             id="path98"
             style="fill:#e51c1d;fill-opacity:1;fill-rule:evenodd;stroke:none"
             d="m 0,0 c -1.341,-1.833 -3.31,-4.013 -2.225,-7.115 1.039,-2.971 4.251,-4.56 7.234,-3.297 C 9.861,-8.357 11.538,1.201 0,0" /></g><g
           transform="translate(162.5464,434.5396)"
           id="g100"><path
             id="path102"
             style="fill:#e51c1d;fill-opacity:1;fill-rule:evenodd;stroke:none"
             d="M 0,0 C 10.978,-1.515 9.694,8.351 5.071,10.288 1.372,11.837 -1.078,9.582 -2.128,7.513 -3.93,3.965 -1.589,2.021 0,0" /></g><g
           transform="translate(130.5093,430.4722)"
           id="g104"><path
             id="path106"
             style="fill:#111111;fill-opacity:1;fill-rule:evenodd;stroke:none"
             d="M 0,0 C 4.639,-5.225 18.966,-2.346 26.091,-0.994 25.251,5.105 12.796,0.536 3.898,0.45 3.452,0.446 1.98,0.486 1.672,0.454 0.237,0.305 0.563,0.268 0,0" /></g><g
           transform="translate(283.3232,418.7446)"
           id="g108"><path
             id="path110"
             style="fill:#ffffff;fill-opacity:1;fill-rule:evenodd;stroke:none"
             d="m 0,0 c -8.163,0.751 -8.932,-10.195 -6.101,-11.738 2.924,-1.594 4.543,1.837 5.45,3.729 C 0.954,-4.658 1.022,-3.231 0,0" /></g><g
           transform="translate(89.2681,410.2207)"
           id="g112"><path
             id="path114"
             style="fill:#ffffff;fill-opacity:1;fill-rule:evenodd;stroke:none"
             d="M 0,0 C 5.259,-3.713 10.822,2.285 9.591,5.893 8.667,8.599 6.06,7.192 3.831,6.071 1.029,4.662 -0.532,4.09 0,0" /></g><g
           transform="translate(169.7339,403.0659)"
           id="g116"><path
             id="path118"
             style="fill:#ffffff;fill-opacity:1;fill-rule:evenodd;stroke:none"
             d="M 0,0 C 0.002,-2.898 0.163,-2.386 0.837,-4.611 6.261,-4.64 5.916,-1.063 7.79,7.021 1.352,6.842 0,0.653 0,0" /></g><g
           transform="translate(171.2671,423.1484)"
           id="g120"><path
             id="path122"
             style="fill:#ffffff;fill-opacity:1;fill-rule:evenodd;stroke:none"
             d="M 0,0 C 3.417,0.084 4.271,0.473 6.543,1.842 5.591,12.048 -8.273,7.098 0,0" /></g></g></g></g></svg>