<svg width="20" height="18" viewBox="0 0 20 18" fill="none" xmlns="http://www.w3.org/2000/svg">
<path d="M3.11765 9L2.28372 9.55187C2.43505 9.78055 2.67365 9.93705 2.94369 9.98475C3.21373 10.0325 3.49152 9.96717 3.71204 9.80418L3.11765 9ZM1.83393 5.24813C1.52914 4.78757 0.908701 4.66128 0.448133 4.96607C-0.012435 5.27086 -0.13872 5.8913 0.166068 6.35187L1.83393 5.24813ZM7.09439 7.30418C7.53853 6.9759 7.63245 6.34974 7.30418 5.90561C6.9759 5.46147 6.34974 5.36755 5.90561 5.69582L7.09439 7.30418ZM4.99576 12.4108C4.72794 11.9278 4.11927 11.7534 3.63627 12.0212C3.15327 12.289 2.97884 12.8977 3.24666 13.3807L4.99576 12.4108ZM18 9C18 12.873 14.8854 16 11.0588 16V18C16.0038 18 20 13.9636 20 9H18ZM4.11765 9C4.11765 5.12704 7.23226 2 11.0588 2V0C6.1138 0 2.11765 4.03641 2.11765 9H4.11765ZM11.0588 2C14.8854 2 18 5.12704 18 9H20C20 4.03641 16.0038 0 11.0588 0V2ZM3.95158 8.44813L1.83393 5.24813L0.166068 6.35187L2.28372 9.55187L3.95158 8.44813ZM3.71204 9.80418L7.09439 7.30418L5.90561 5.69582L2.52326 8.19582L3.71204 9.80418ZM11.0588 16C8.45748 16 6.18567 14.5567 4.99576 12.4108L3.24666 13.3807C4.77222 16.1319 7.69644 18 11.0588 18V16Z" fill="black"/>
</svg>
