<svg width="89" height="89" viewBox="0 0 89 89" fill="none" xmlns="http://www.w3.org/2000/svg">
<path d="M21.2028 34.8665L44.0008 85.8352L66.7989 34.8665L66.7999 34.8655C68.2084 35.4973 69.9272 35.1913 71.0179 33.9994C72.3643 32.5267 72.2431 30.2569 70.747 28.9315C63.1237 22.1771 53.5624 18.8 44.0008 18.8003C34.4392 18.8 24.878 22.1771 17.2547 28.9315C15.7585 30.2569 15.6373 32.5267 16.9838 33.9994C18.0728 35.191 19.7922 35.4983 21.2028 34.8665Z" fill="#F5B955"/>
<path d="M66.7989 34.8665L66.7999 34.8655C66.7999 34.8655 58.0087 25.8598 45.2899 25.8598C30.2941 25.8601 21.2028 34.8665 21.2028 34.8665L44.0008 85.8352L66.7989 34.8665Z" fill="#FFDE85"/>
<path d="M37.2436 70.7294L37.0201 70.2271C36.5709 68.9675 36.8586 67.5099 37.8821 66.5024C39.3061 65.1007 41.6144 65.1007 43.0384 66.5024C44.4624 67.9041 44.4624 70.1762 43.0384 71.5779C41.3885 73.202 38.5518 72.9443 37.2782 70.8057L37.2436 70.7294Z" fill="#A5DC69"/>
<path d="M43.1414 52.8663C41.7177 51.4649 41.7174 49.1925 43.1414 47.7908C44.5651 46.3895 46.874 46.3895 48.2977 47.7908C49.7217 49.1925 49.7214 51.4649 48.2977 52.8663C46.8737 54.268 44.5655 54.268 43.1414 52.8663Z" fill="#FE5F51"/>
<path d="M32.8292 39.332C31.4052 37.9303 31.4052 35.6582 32.8292 34.2565C34.2529 32.8551 36.5615 32.8548 37.9855 34.2565C39.4092 35.6579 39.4092 37.9306 37.9855 39.332C36.5615 40.7337 34.2529 40.7334 32.8292 39.332Z" fill="#A5DC69"/>
<path d="M62.1139 45.3406C60.9021 45.6532 59.5589 45.3416 58.6099 44.4075C57.1859 43.0058 57.1863 40.7334 58.6099 39.332C60.0339 37.9303 62.3422 37.9303 63.7662 39.332C64.0317 39.5934 64.2496 39.8852 64.4144 40.1968L62.1139 45.3406Z" fill="#A5DC69"/>
<path d="M44.8605 37.6402C44.3859 38.1074 44.3859 38.8648 44.8605 39.332C45.3349 39.7989 46.1046 39.7992 46.5793 39.332C47.0536 38.8651 47.0536 38.1071 46.5793 37.6402C46.1046 37.1729 45.3349 37.1733 44.8605 37.6402Z" fill="black"/>
<path d="M71.9209 34.7998C73.7179 32.8346 73.5571 29.8115 71.5603 28.0423C63.9626 21.311 54.1754 17.6039 44.0005 17.6039C33.8262 17.6039 24.0391 21.311 16.4416 28.0427C14.4489 29.8065 14.2804 32.8313 16.0801 34.7991C17.2228 36.0501 18.9026 36.596 20.523 36.3161C20.568 36.4172 42.6644 85.8164 42.8887 86.3173C43.0824 86.7512 43.5188 87.0314 44.0008 87.0314C44.4825 87.0311 44.9193 86.7512 45.113 86.3173C46.1654 83.9643 66.3252 38.8942 67.479 36.3151C69.098 36.595 70.7778 36.0491 71.9209 34.7998ZM38.7415 67.3483C39.6892 66.4155 41.2313 66.4155 42.179 67.3483C43.1267 68.2812 43.1267 69.7992 42.179 70.732C41.6422 71.2604 40.9024 71.5089 40.1481 71.4134C38.1205 71.1576 37.341 68.7269 38.7415 67.3483ZM39.9436 73.7968C41.414 73.9514 42.8497 73.4555 43.8978 72.4238C45.7931 70.5582 45.7934 67.5225 43.8978 65.6565C42.0024 63.7909 38.9181 63.7909 37.0227 65.6565C36.8488 65.8277 36.6914 66.0111 36.5481 66.2031L22.7373 35.3288C22.8084 35.2726 22.8786 35.2148 22.9461 35.1543C34.9491 24.5202 53.0525 24.5202 65.0569 35.1556C65.1244 35.2154 65.1942 35.2723 65.2647 35.3284L64.0643 38.0116C62.1636 36.637 59.469 36.7953 57.7509 38.4864C55.8555 40.3521 55.8552 43.3878 57.7509 45.2538C58.439 45.9311 59.3115 46.3776 60.2411 46.5596L44.0005 82.8663L39.9436 73.7968ZM61.27 44.2588C60.6056 44.2796 59.9483 44.0331 59.4693 43.5616C58.5216 42.6288 58.5216 41.1107 59.4693 40.1779C60.4173 39.2448 61.9591 39.2451 62.9068 40.1779C62.9515 40.2219 62.9941 40.2671 63.0347 40.3131L61.27 44.2588ZM66.6817 33.3759C53.7517 21.9207 34.2506 21.9207 21.3186 33.3772C20.3424 34.2456 18.8066 34.205 17.8875 33.1991C16.9952 32.2237 17.0627 30.7126 18.0681 29.8207C25.218 23.4853 34.4278 19.9962 44.0012 19.9962C53.5738 19.9962 62.7836 23.4853 69.9342 29.8207C70.9319 30.7043 71.0132 32.2164 70.1148 33.1985C70.0856 33.2305 70.0561 33.2616 70.0252 33.292C69.1021 34.2 67.6404 34.2231 66.6817 33.3759Z" fill="black"/>
<path d="M42.2821 46.9449C40.3864 48.8109 40.3867 51.8466 42.2821 53.7122C44.1777 55.5782 47.2614 55.5782 49.1571 53.7122C51.0524 51.8466 51.0528 48.8109 49.1571 46.9449C47.2618 45.0793 44.1774 45.0793 42.2821 46.9449ZM47.4383 52.0204C46.4907 52.9532 44.9488 52.9535 44.0008 52.0204C43.0532 51.0876 43.0532 49.5696 44.0008 48.6367C44.9485 47.7039 46.4907 47.7039 47.4383 48.6367C48.3863 49.5699 48.386 51.0876 47.4383 52.0204Z" fill="black"/>
<path d="M31.9699 33.4106C30.0742 35.2766 30.0742 38.3119 31.9699 40.1779C33.8652 42.0435 36.9492 42.0439 38.8449 40.1779C40.7402 38.3123 40.7402 35.2762 38.8449 33.4106C36.9492 31.5446 33.8652 31.5449 31.9699 33.4106ZM37.1261 38.4861C36.1781 39.4192 34.6363 39.4189 33.6886 38.4861C32.741 37.5533 32.7406 36.0356 33.6886 35.1024C34.6363 34.1696 36.1785 34.1696 37.1261 35.1024C38.0738 36.0352 38.0738 37.5533 37.1261 38.4861Z" fill="black"/>
<path d="M49.9305 36.0108L51.6493 34.319C52.124 33.8517 52.124 33.0944 51.6493 32.6271C51.1746 32.1599 50.4052 32.1599 49.9305 32.6271L48.2118 34.319C47.7371 34.7862 47.7371 35.5436 48.2118 36.0108C48.6865 36.478 49.4559 36.478 49.9305 36.0108Z" fill="black"/>
<path d="M46.579 59.6118L44.8602 61.3037C44.3856 61.7709 44.3856 62.5283 44.8602 62.9955C45.3349 63.4627 46.1043 63.4627 46.579 62.9955L48.2977 61.3037C48.7724 60.8364 48.7724 60.0791 48.2977 59.6118C47.8231 59.1446 47.0536 59.1446 46.579 59.6118Z" fill="black"/>
<path d="M36.2664 49.4608L37.9852 47.769C38.4598 47.3018 38.4598 46.5444 37.9852 46.0772C37.5105 45.6099 36.7411 45.6099 36.2664 46.0772L34.5477 47.769C34.073 48.2362 34.073 48.9936 34.5477 49.4608C35.0223 49.9281 35.7917 49.9281 36.2664 49.4608Z" fill="black"/>
</svg>
